<svg width="99" height="81" viewBox="0 0 99 81" fill="none" xmlns="http://www.w3.org/2000/svg">
<path fill-rule="evenodd" clip-rule="evenodd" d="M84.3262 0.474662C83.5926 1.12162 83.1742 1.76176 83.3944 1.90316C83.4952 1.94876 83.6004 1.98365 83.7083 2.00727C83.8401 2.02955 83.9356 2.0982 83.9356 2.15594C83.9356 2.28233 83.7226 2.29006 83.1576 2.19322C82.8716 2.14776 82.7469 2.17095 82.4021 2.32734C81.529 2.73653 79.4874 4.23186 78.873 4.92383C78.1906 5.68263 77.5157 6.8879 77.5157 7.33345C77.5157 7.58669 77.6112 7.66079 77.9484 7.66079C78.1982 7.66079 78.543 7.92131 78.543 8.10726C78.543 8.25593 78.2125 8.40505 77.8677 8.40505C77.6919 8.40505 77.6332 8.35958 77.5668 8.18182C77.4861 7.95859 77.2883 7.8322 77.1489 7.92131C77.083 7.96677 77.0534 8.10726 76.9655 8.79923C76.9287 9.05201 76.8189 9.29934 76.5839 9.65487C76.3792 9.95747 76.1944 10.2734 76.0305 10.6005C75.9135 10.846 75.7664 11.1066 75.7005 11.1738C75.5467 11.3598 75.1723 11.3375 74.7983 11.1284C74.2553 10.8233 74.0719 10.8233 73.6683 11.0988C73.228 11.3962 72.854 11.8799 72.7513 12.2809C72.6486 12.6605 72.2132 12.9952 71.7388 13.0538C71.5478 13.0761 71.2007 13.1447 70.9684 13.1952L70.55 13.2993L70.5648 13.0984C70.5868 12.9274 70.5572 12.9051 70.3151 12.8824C70.0877 12.8601 70.0012 12.9051 69.7137 13.1875C69.5227 13.3661 69.3761 13.5821 69.3761 13.6639C69.3761 13.8649 69.1487 13.954 69.0384 13.8053C68.9066 13.6194 68.738 13.6639 67.938 14.0654C67.3071 14.3782 67.1757 14.4746 67.1089 14.6683C66.9403 15.1593 67.0578 15.6357 67.4317 15.9331C67.5344 16.0149 67.6152 16.1268 67.6152 16.1786C67.6152 16.305 67.2484 16.5955 66.8008 16.8333C66.5955 16.9451 66.434 17.1011 66.3605 17.2575C66.2139 17.5625 66.0744 17.6212 65.5901 17.5757C65.3408 17.5457 65.1942 17.568 65.1574 17.6212C65.1278 17.673 65.1794 17.9485 65.2749 18.2313C65.4215 18.6778 65.4287 18.7669 65.3408 18.8192C64.9152 19.0942 63.9467 18.4618 63.9467 17.9262C63.9496 17.8558 63.9334 17.786 63.8998 17.7243C63.8662 17.6626 63.8165 17.6115 63.7561 17.5766C63.6262 17.4825 63.5245 17.3538 63.4624 17.2047C63.279 16.7583 62.692 16.52 62.2517 16.7132C62.0974 16.7805 61.8261 16.8101 61.5252 16.7951L61.0481 16.7728L61.0629 16.996C61.1078 17.8144 61.0997 17.9412 61.0042 18.0376C60.7351 18.2909 59.845 18.3877 59.5881 18.1868C59.3536 18.0081 58.6913 18.0454 58.2236 18.2686C57.9007 18.4173 57.7684 18.4468 57.5263 18.395C57.2662 18.3604 57.0035 18.3504 56.7415 18.365C56.2573 18.3877 56.2425 18.38 56.2425 18.2163C56.2425 18.1195 56.4039 17.7553 56.6012 17.4129C57.0496 16.6464 57.1146 16.3413 56.9151 15.9026C56.7613 15.5525 56.1375 14.9201 55.8389 14.8015C55.7362 14.7642 55.4062 14.7492 55.1053 14.7792C54.3349 14.8383 53.9681 14.6601 53.9681 14.2136C53.9634 14.1651 53.9469 14.1186 53.92 14.0782C53.893 14.0379 53.8565 14.005 53.8139 13.9826C53.3515 13.7299 52.574 14.5109 52.574 15.2402C52.574 15.4857 52.5448 15.538 52.3906 15.5753C52.2951 15.5975 52.0897 15.7685 51.9354 15.9544C51.6713 16.2727 51.4588 16.3714 51.3633 16.215C51.2238 15.9917 50.3584 16.23 50.0499 16.5787C49.9768 16.6605 49.736 16.8019 49.5145 16.8837C48.9714 17.092 48.6562 17.3225 47.6437 18.2454C46.6675 19.1456 46.4697 19.2647 46.0146 19.2647C45.5451 19.2647 45.4204 19.4652 45.4352 20.2095C45.4424 20.6782 45.4801 20.8346 45.6845 21.2361C45.8164 21.5039 45.9047 21.7362 45.8751 21.7644C45.7854 21.8612 45.6061 21.7189 45.5083 21.4816C45.3908 21.1915 44.9877 20.8196 44.5765 20.6037C44.2245 20.4177 44.1218 20.4177 43.9676 20.5891C43.8061 20.7673 43.8138 20.8046 43.9972 20.8492C44.0868 20.8714 44.1366 20.9401 44.1218 20.9906C44.077 21.127 43.8138 21.1542 43.6227 21.0501C43.4909 20.976 43.4761 20.9237 43.5129 20.6487C43.564 20.3063 43.4613 19.778 43.2779 19.4952C43.1165 19.2347 43.0506 19.4134 43.0945 20.0158C43.1241 20.44 43.1093 20.5614 42.999 20.6782C42.9259 20.76 42.8232 20.8269 42.7645 20.8269C42.7057 20.8269 42.5075 20.976 42.3093 21.162C42.1188 21.3479 41.9425 21.4743 41.9134 21.452C41.8546 21.3852 41.9793 20.9974 42.1479 20.7601C42.5004 20.2599 42.5223 19.5698 42.1927 19.3834C42.112 19.3379 42.0313 19.2925 42.0165 19.287C42.0017 19.272 42.0457 19.1961 42.112 19.1233C42.2954 18.9224 42.2439 18.565 42.0223 18.5355C41.8022 18.4982 41.0614 19.2497 40.8045 19.7703C40.6578 20.0681 40.4816 20.254 40.0421 20.5814C39.7336 20.8123 39.4552 21.036 39.4256 21.0815C39.396 21.127 39.3745 21.297 39.3745 21.4607C39.3816 21.6393 39.3009 21.9371 39.1763 22.1972C38.9852 22.6214 38.9781 22.6659 39.0659 23.0528C39.2054 23.7002 39.2422 24.0126 39.1911 24.1467C39.1462 24.2586 39.1247 24.2508 38.9561 24.0944C38.8534 23.998 38.5305 23.5811 38.2444 23.1719C37.9073 22.7007 37.5448 22.2487 37.1584 21.818C36.7624 21.3938 36.5494 21.096 36.4468 20.821C36.2705 20.345 36.1019 20.2036 35.9477 20.4118C35.801 20.6127 35.8158 20.9774 35.9925 21.3565C36.1831 21.788 36.1759 22.0412 35.9777 22.2717C35.8235 22.4504 35.2603 22.7405 35.2603 22.6514C35.2878 22.5712 35.3274 22.4959 35.3777 22.4281C35.554 22.1526 35.4226 22.0485 34.8495 21.9967C34.5356 21.9667 34.3065 21.8998 34.2114 21.818C34.1087 21.7139 33.9473 21.6816 33.5729 21.6816C33.294 21.6816 33.0446 21.6521 33.0155 21.6221C32.9787 21.5925 33.0518 21.4807 33.1693 21.3843C33.3527 21.2352 33.3747 21.1833 33.3088 21.0715C33.2428 20.9596 33.0594 20.9228 32.1348 20.856C31.5335 20.8037 30.8582 20.7441 30.638 20.7146C30.264 20.6691 30.2053 20.6846 29.8824 20.9005C29.6255 21.0792 29.4865 21.1238 29.3542 21.0938C29.0241 21.0119 28.7381 20.3277 28.9654 20.1845C29.0102 20.1545 29.2147 20.139 29.4138 20.1472C29.7277 20.1545 29.8098 20.1322 29.9349 19.9685C30.1183 19.7453 30.3017 19.723 31.2115 19.8126C31.7178 19.858 31.9155 19.8494 31.9962 19.7826C32.1653 19.6412 32.1285 19.4402 31.8936 19.1724L31.6734 18.9269L31.468 19.1206C31.1747 19.4034 30.9837 19.4843 30.6465 19.4843C30.3676 19.4843 30.3017 19.4388 29.8394 18.9483C29.3183 18.4054 29.0981 18.3236 29.0981 18.6805C29.0981 18.9706 28.8416 19.3056 28.482 19.4693C27.8363 19.7817 26.8825 20.0199 26.1193 20.0717C25.3122 20.124 25.1875 20.1763 25.0261 20.5777C24.8283 21.0542 24.5328 20.8755 24.2189 20.0644C24.1163 19.7967 23.9548 19.5139 23.8741 19.4393C23.7347 19.3056 23.727 19.3056 23.5876 19.4693C23.4118 19.6998 23.3383 20.0944 23.4338 20.3695C23.5234 20.63 23.4118 20.7119 23.1257 20.6C22.8616 20.5036 22.7441 20.0794 22.854 19.5957C22.9347 19.232 23.0593 18.9928 23.6683 18.0108C23.8297 17.758 23.9252 17.5048 23.9324 17.3043C23.9472 17.1329 23.9548 16.9692 23.9548 16.9319C23.9768 16.6641 24.2687 17.2002 24.6149 18.1449C25.0037 19.1938 25.4292 19.5584 26.274 19.5584C26.8901 19.5584 27.1323 19.432 27.3377 19.0006C27.4919 18.6823 27.4991 18.5764 27.4722 17.6366C27.4273 16.4909 27.2816 15.7321 26.9588 15.0179C26.6211 14.2663 26.5919 14.1395 26.7606 14.0504C26.9588 13.939 26.9368 13.8199 26.6359 13.5071C26.4525 13.3211 26.3054 13.232 26.1664 13.232C25.9736 13.2212 25.782 13.1938 25.5938 13.1502C24.8673 12.9792 24.3467 13.2843 24.0898 14.0281C23.9943 14.3259 23.9136 14.43 23.7158 14.5282C23.5764 14.5955 23.4149 14.6473 23.3486 14.6473C23.1948 14.6473 22.7324 15.0642 22.6006 15.3393C22.4316 15.6667 21.9181 16.2031 21.6172 16.3586C21.3092 16.5223 21.1182 16.7223 20.8549 17.192C20.7451 17.3929 20.5617 17.6012 20.4442 17.6607C20.1433 17.8171 20.0038 18.0549 19.9509 18.5164C19.9061 18.8737 19.885 18.9106 19.65 19.0165C19.4595 19.0983 19.1806 19.1206 18.6156 19.0983C17.8819 19.0756 17.8156 19.061 17.4497 18.8228C17.1268 18.6068 16.9802 18.5623 16.5327 18.5327C16.0852 18.5032 15.9385 18.5314 15.6816 18.6678C15.3592 18.8314 15.0215 19.2706 14.7942 19.8135C14.6915 20.0444 14.552 20.2004 14.2951 20.3718C14.0969 20.5054 13.8404 20.7064 13.7377 20.8328C13.6274 20.9519 13.4956 21.056 13.4368 21.056C13.3023 21.056 12.7252 21.7034 12.3727 22.2381C12.0427 22.7441 12.0279 23.1833 12.314 23.838C12.4243 24.0758 12.5122 24.3381 12.5122 24.4031C12.5122 24.4777 12.3947 24.6786 12.2481 24.8578C11.8077 25.3933 11.5364 26.0108 11.5216 26.5468C11.5068 26.9855 11.4042 27.231 11.2427 27.231C11.2064 27.231 11.0593 27.1401 10.9203 27.0378C10.7813 26.9355 10.6266 26.8591 10.5679 26.8741C10.5091 26.8891 10.2988 27.1119 10.0984 27.3797L9.72439 27.8634L9.89299 27.9976C9.98268 28.0644 10.2011 28.2281 10.3863 28.3472C10.5714 28.4663 10.7607 28.6077 10.8118 28.6522C10.9513 28.7714 10.8705 29.121 10.5992 29.5452C10.4082 29.8575 10.3791 29.9466 10.423 30.2271C10.4741 30.5399 10.3643 31.1273 10.2544 31.2019C10.2248 31.2242 10.0486 31.1724 9.87282 31.0828C9.61196 30.9807 9.34151 30.9059 9.06567 30.8596C8.69124 30.8 8.51546 30.7259 8.2657 30.5172C7.84777 30.1753 7.51774 30.0626 6.60656 29.9816C6.02676 29.9221 5.76982 29.8625 5.52768 29.7211C5.16895 29.5129 4.88959 29.4906 4.6035 29.6393C4.41955 29.7142 4.22748 29.7667 4.03132 29.7957C3.569 29.8552 3.21655 30.0635 3.11386 30.3413C2.9892 30.6536 3.08472 31.286 3.30489 31.6656C3.41475 31.8516 3.71564 32.2385 3.97975 32.5213L4.45642 33.0346L4.008 32.9891C3.63402 32.9437 3.55331 32.9591 3.51475 33.0632C3.4856 33.1451 3.52954 33.2569 3.63941 33.376C3.87437 33.6288 3.8524 33.9784 3.55869 34.4099C3.43403 34.5963 3.33897 34.8045 3.35332 34.8714C3.39009 35.0723 3.74209 35.2805 4.14567 35.3474C4.35866 35.3774 4.58601 35.4592 4.65955 35.526C4.73854 35.5919 4.83594 35.6311 4.93801 35.6379C5.01873 35.6379 5.28285 35.8016 5.51064 36.0098C5.9873 36.434 6.24424 36.4935 6.31778 36.1885C6.37608 35.943 6.12676 35.6602 5.74516 35.556C5.37118 35.4592 5.28284 35.2432 5.47387 34.9086C5.54741 34.7722 5.61333 34.5904 5.61333 34.4995C5.61307 34.4163 5.63408 34.3346 5.67431 34.2621C5.70346 34.2167 6.09223 34.0093 6.53975 33.7934C7.73567 33.2278 7.9267 33.2428 10.0912 34.1116C10.6782 34.3494 11.2943 34.5581 11.4705 34.5804C11.8593 34.6258 11.9032 34.8409 11.5364 34.9896C11.4118 35.0491 11.1477 35.2623 10.9566 35.4806C10.7661 35.6888 10.5679 35.8602 10.5167 35.8602C10.4656 35.8602 10.2818 35.7929 10.1055 35.7111C9.26207 35.3242 8.73384 35.5401 9.10782 36.1203C9.24728 36.3362 9.21051 36.3435 8.70425 36.2244C8.41098 36.1575 8.35942 36.1725 8.10248 36.3512C7.75047 36.5967 7.34017 36.7454 6.99489 36.7527C6.62809 36.7527 6.49581 36.82 6.42271 37.0205C6.34917 37.2069 6.50343 38.8731 6.65723 39.5578C6.73795 39.9297 6.79176 40.0416 7.11238 40.5126C7.25183 40.7058 7.25183 40.7281 7.12673 41.2191C7.04601 41.5319 7.01687 41.8147 7.04601 41.9634C7.12673 42.3353 7.47156 42.6776 7.86795 42.7817C8.38139 42.9181 8.62353 43.0122 8.62353 43.0941C8.62353 43.1314 8.86568 43.4214 9.16656 43.7415C9.59928 44.203 9.72439 44.3812 9.76071 44.6121C9.84143 45.1404 10.1055 46.1579 10.2598 46.5244C10.4212 46.9186 10.5827 47.0245 11.045 47.0245C11.2214 47.0282 11.3933 46.9676 11.5293 46.8535C11.6979 46.7044 11.727 46.608 11.7858 46.0124C11.8445 45.3205 11.9472 44.9636 12.2261 44.413C12.3331 44.1675 12.4024 43.9069 12.4315 43.6401L12.4763 43.1936L12.9167 43.0077C13.2983 42.844 13.4669 42.8217 14.2449 42.8217C15.2278 42.814 15.3744 42.7622 15.3744 42.4126C15.3735 42.3509 15.3877 42.29 15.4159 42.2354C15.4441 42.1807 15.4853 42.1341 15.5358 42.0998L15.7049 41.9884L15.5654 40.9168C15.4919 40.3294 15.4112 39.652 15.3892 39.4214C15.3524 38.9081 15.3085 38.9304 16.5999 38.9004C17.3995 38.8781 17.5098 38.8636 17.7003 38.7072C18.1775 38.313 18.6761 38.1416 19.4173 38.1121C20.0994 38.0821 20.1218 38.0898 20.2693 38.268C20.35 38.3726 20.5554 38.5135 20.724 38.5863C21.1935 38.7799 21.6486 39.4346 21.7365 40.067C21.7733 40.3571 21.8262 40.4389 22.1549 40.6917C22.6244 41.0554 22.8813 41.1605 23.1966 41.1009C23.3948 41.0641 23.5104 41.1009 23.7912 41.2873C23.9746 41.4137 24.1871 41.5178 24.2606 41.5178C24.3342 41.5178 24.488 41.6369 24.5979 41.7856C25.1117 42.4626 25.2803 42.6117 25.7355 42.7754C26.4691 43.0354 26.5498 43.0432 26.8063 42.8208C27.1368 42.538 27.1511 42.4039 26.896 41.9429C26.6171 41.4369 26.6171 41.3251 26.9251 41.1914C27.0794 41.1245 27.1892 41.02 27.2188 40.9013C27.2776 40.6558 27.4166 40.6108 27.8278 40.7004C28.2973 40.8118 28.334 40.7458 28.2237 40.1348C28.1726 39.862 28.165 39.6065 28.1946 39.5769C28.2314 39.5397 28.4587 39.5769 28.708 39.6588C29.3609 39.867 30.5349 40.0084 32.2505 40.1052C33.9159 40.1962 34.5177 40.2985 34.789 40.5599C34.9432 40.7085 34.9652 40.7904 34.9652 41.2369C34.9652 41.7056 34.98 41.7501 35.1706 41.8693C35.327 41.9736 35.4768 42.088 35.619 42.2116C35.81 42.3753 35.9051 42.4126 36.0813 42.3753L36.3015 42.323L36.2499 42.6653C36.2051 42.9554 36.2136 43.015 36.3306 43.0522C36.6095 43.1341 36.6974 43.2159 36.984 43.6474C37.5122 44.4203 38.2395 44.7563 39.0018 44.5703C39.4202 44.4657 39.5153 44.518 39.5153 44.8381C39.5153 45.0836 39.9188 46.4525 40.1247 46.9063L40.3152 47.3232H40.674C40.9233 47.3232 41.0699 47.36 41.1358 47.4496C41.3268 47.6801 41.8035 47.8438 42.3174 47.8438C42.5815 47.8438 42.8604 47.866 42.9263 47.8892C42.9923 47.9192 43.2931 48.2529 43.594 48.6408C44.2102 49.4296 44.4375 49.6005 44.9586 49.6678C45.2155 49.7046 45.3841 49.7792 45.5384 49.9356C45.7218 50.1215 45.8168 50.1511 46.1397 50.1511C46.6679 50.1438 47.1302 49.9651 48.0033 49.4237C49.3167 48.6126 49.8597 48.4266 50.3144 48.6198C50.4687 48.6867 50.6669 48.739 50.7628 48.739C50.8588 48.739 51.1216 48.8581 51.357 48.9995C51.9 49.3341 52.4135 49.4832 52.9713 49.4832C53.5731 49.4832 53.9475 49.3641 54.2116 49.1036C54.4093 48.8954 54.4241 48.8503 54.3802 48.5307C54.2407 47.5855 54.2407 47.3623 54.3802 47.1913C54.5932 46.9386 54.8865 46.894 55.5461 47.0054C56.6025 47.1841 56.859 47.2955 57.3214 47.7328C58.0478 48.4321 58.3975 48.5057 59.4639 48.1793C59.8015 48.0824 60.1168 48.0229 60.1683 48.0524C60.2199 48.082 60.3517 48.2161 60.4544 48.343C60.6746 48.6107 61.1365 48.7817 61.4006 48.6926C61.5258 48.6438 61.6443 48.5787 61.753 48.4989C61.9436 48.3575 61.9436 48.3575 62.2665 48.5289C62.5454 48.6776 62.6848 48.6999 63.3086 48.6926C63.9982 48.6849 64.0422 48.6703 64.717 48.343C65.5758 47.9188 65.8251 47.7328 66.2287 47.2063C66.6771 46.6112 66.8008 46.5662 68.129 46.4994C69.5743 46.4325 69.7882 46.3507 70.2366 45.7333C70.5231 45.3387 70.5594 45.2495 70.5155 45.0186C70.398 44.3416 70.398 44.1779 70.5083 43.6424C70.6989 42.7272 70.6698 42.4667 70.3689 42.1616C69.9065 41.6929 69.9505 41.3732 70.5375 40.9936C70.941 40.7331 71.0805 40.7258 71.3742 40.9413C71.6087 41.1127 72.1737 41.2018 72.4952 41.12C72.5979 41.0905 72.884 40.8895 73.119 40.6654C73.3611 40.4421 73.5957 40.2562 73.6396 40.2562C73.7791 40.2562 74.2046 40.6058 74.953 41.335C75.8996 42.2575 76.4059 42.699 76.67 42.8381C76.8682 42.9422 76.9341 42.9422 77.4256 42.8154C77.8807 42.704 78.0345 42.6967 78.4309 42.7635C79.0327 42.8677 79.3277 43.0163 79.8322 43.4628C80.2945 43.872 80.2649 43.8574 80.4779 43.7456C80.9153 43.5074 81.2671 43.135 81.4828 42.6817C81.703 42.1816 82.1285 41.6697 82.3196 41.6697C82.503 41.6697 82.7083 42.0716 82.7523 42.5476C82.8185 42.9546 82.9091 43.3571 83.0236 43.7529C83.42 45.1591 83.4052 45.4196 82.8846 45.6874C82.5617 45.8511 82.1433 46.3793 82.1433 46.6249C82.1433 46.7158 82.3196 47.049 82.5397 47.3691C83.0384 48.1279 83.1267 48.3884 83.0603 49.0281C83.0236 49.4373 83.0312 49.5414 83.1191 49.5787C83.3393 49.6605 83.6841 49.1027 83.6841 48.6694C83.6841 48.4162 83.8088 48.2898 84.0509 48.2898C84.4764 48.2898 85.0414 48.0515 85.3423 47.7392C85.9661 47.1068 86.1495 45.7974 86.0831 42.4198C86.0468 40.4258 85.9293 39.1091 85.7459 38.484C85.6562 38.1939 85.4159 37.7402 84.7625 36.6613C84.2639 35.8352 83.9921 35.1582 84.0729 34.9423C84.1025 34.8682 84.2051 34.8232 84.3666 34.8232C84.6598 34.8232 84.9316 35.0914 85.7607 36.2071C86.0688 36.6163 86.575 37.2564 86.8902 37.621C87.2041 37.993 87.7194 38.6404 88.0274 39.0718C88.3413 39.496 88.666 39.8902 88.7539 39.9425C89.0036 40.0984 89.0677 39.9647 88.974 39.5033C88.9005 39.1464 88.9005 39.0941 89.0189 39.0123C89.0852 38.96 89.2686 38.9154 89.4224 38.9154C89.6206 38.9154 89.7014 38.8859 89.7014 38.804C89.7014 38.6549 89.2758 38.3949 89.0408 38.3949C88.5476 38.3871 87.7938 37.7847 87.5001 37.1596C87.2508 36.6536 87.2288 36.2744 87.4194 36.0139C87.5001 35.8948 87.5736 35.7461 87.5736 35.6865C87.5736 35.5501 87.192 35.2178 86.4876 34.7413C85.5854 34.1239 85.0204 33.6552 84.272 32.8891C83.6339 32.2339 82.8559 31.6238 82.6653 31.6238C82.5039 31.6238 82.5917 31.9143 82.8411 32.2194C82.9805 32.3903 83.098 32.5467 83.098 32.569C83.0683 32.6671 83.029 32.7618 82.9805 32.8518C82.8267 33.1792 82.577 33.261 81.6967 33.261C81.051 33.261 80.9555 33.276 80.7797 33.4319C80.5815 33.6033 80.5815 33.6179 80.6694 33.953C80.8384 34.5408 80.6842 34.6672 80.2071 34.3399C79.8551 34.1016 79.7963 34.1089 79.7963 34.3772C79.7963 34.4958 79.7744 34.6004 79.7515 34.6004C79.7286 34.6004 79.6049 34.4813 79.4726 34.3399L79.2233 34.0794L78.8565 34.2726C78.4233 34.4958 78.2547 34.4735 78.2547 34.1762C78.2547 33.8789 78.6731 32.3158 78.8488 31.9439C79.0327 31.557 79.047 31.0732 78.8856 30.7686C78.7905 30.5822 78.7681 30.2685 78.7681 28.9159V27.2819L79.9717 26.0394C80.9402 25.0346 81.2115 24.7073 81.3949 24.3204C81.6519 23.7775 81.7765 23.6361 82.1505 23.4797C82.3855 23.3829 82.437 23.3829 82.7231 23.517C82.8989 23.5916 83.068 23.6584 83.1043 23.6584C83.1707 23.6584 84.1975 21.6348 84.1975 21.5007C84.1975 21.4488 84.0729 21.4411 83.8388 21.4711C83.4863 21.5166 83.472 21.5166 83.3545 21.2774C83.2222 21.0169 82.8043 18.9042 82.8043 18.495C82.8043 18.2195 83.1272 17.7135 83.4276 17.5125C83.6186 17.3861 83.6258 17.3861 83.8388 17.6539C84.1172 17.9963 84.4258 18.0263 84.6092 17.7448C84.7119 17.5884 84.7262 17.432 84.6989 16.9042C84.654 16.19 84.4787 15.6466 84.1634 15.222C83.9137 14.8874 83.9504 14.6564 84.2294 14.8424C84.4495 14.9915 85.0145 15.7208 85.2051 16.1077C85.2858 16.2713 85.3885 16.6355 85.4324 16.926C85.484 17.2088 85.7042 18.0626 85.9315 18.8233C86.2903 20.0358 86.3495 20.3113 86.3939 21.1074C86.4526 21.9853 86.4669 22.0449 86.7826 22.7068C87.2373 23.6593 87.6189 24.0612 88.7341 24.7605C90.6054 25.9362 92.5492 27.0073 92.8062 27.0073C92.9407 27.0073 92.9456 26.9701 92.9017 26.5313C92.8358 25.8839 92.6815 25.4597 92.278 24.8273C91.8295 24.1353 91.8085 24.0758 91.9403 23.7562C92.1017 23.3693 92.0798 23.2724 91.7277 23.0119C91.4049 22.7741 91.1699 22.3872 91.1699 22.0894C91.1699 21.9985 91.2726 21.7548 91.4049 21.5539C91.6838 21.1147 91.6399 20.981 91.1627 20.8692C90.4879 20.7128 90.2897 20.4304 90.2897 19.6489C90.2897 19.1488 90.2825 19.1488 89.7027 19.1061C89.4897 19.0833 89.3946 19.0092 89.1009 18.6373C88.9027 18.3918 88.7122 18.1758 88.6682 18.1686C88.6314 18.1536 88.4848 18.2427 88.3382 18.3691C88.1987 18.4959 88.0516 18.6 88.0153 18.6C87.8463 18.6 87.5014 18.1908 87.3916 17.8558C87.3058 17.6197 87.1924 17.3949 87.0539 17.1861C86.7755 16.7919 86.7239 16.5241 86.8705 16.2341C86.9498 16.0709 87.009 15.8985 87.0467 15.7208C87.0835 15.5271 87.1494 15.4302 87.2449 15.4157C87.4795 15.3702 87.5014 15.3038 87.3844 14.961C87.2521 14.5669 87.3396 13.9863 87.5969 13.6071C87.7584 13.3616 87.8171 13.3243 88.1911 13.1756C88.3893 13.0938 88.3965 13.0715 88.3525 12.7442C88.3306 12.5578 88.1911 12.0595 88.0516 11.6503C87.9126 11.2334 87.6848 10.2514 87.5382 9.46301C87.2593 7.90767 87.2593 7.83356 87.6409 7.48348C87.8611 7.28298 87.8391 6.96291 87.6041 6.77696C87.4355 6.64284 87.3109 6.62056 86.6284 6.62056C86.2028 6.62056 85.7315 6.65057 85.5939 6.6874C85.4562 6.72422 85.2858 6.76196 85.2271 6.77833C85.1374 6.8006 85.1172 6.71877 85.1096 6.36142C85.1024 5.69945 84.8603 5.33483 84.2074 4.9702C83.8697 4.78425 83.9213 4.57602 84.3101 4.57602C84.6181 4.57602 84.6769 4.50146 84.919 3.86177C84.9778 3.72038 85.1244 3.60126 85.4253 3.46714C85.9096 3.23664 86.5844 2.6115 86.7459 2.24733C86.8925 1.88997 86.8194 1.74131 86.4746 1.68175C86.093 1.62219 85.6226 1.198 85.5208 0.826104C85.4311 0.483755 85.1096 1.14025e-05 84.9701 1.14025e-05C84.9065 -0.00180718 84.6199 0.21415 84.3262 0.474662ZM85.0746 1.30803C85.2508 1.73949 85.5513 2.02955 86.0284 2.2305C86.1459 2.28233 86.2486 2.34962 86.2486 2.37917C86.2486 2.45374 85.4706 2.99658 85.0307 3.21981C84.5975 3.44304 84.4876 3.56216 84.4217 3.88951C84.3769 4.09046 84.3262 4.14274 84.0325 4.24686C83.5778 4.39553 83.3872 4.58148 83.3872 4.85699C83.3872 5.09477 83.5487 5.27345 84.1944 5.74946C84.3778 5.88358 84.5531 6.08454 84.5908 6.19592C84.6567 6.36733 84.6356 6.42689 84.4294 6.64239C83.967 7.12613 83.9966 7.74354 84.4881 7.94449L84.745 8.04861L84.532 7.8181C84.2679 7.54259 84.2531 7.55031 85.4199 7.4462C86.4983 7.34936 87.0562 7.34209 87.0562 7.4312C87.0562 7.46075 86.9898 7.57259 86.9167 7.67671C86.6965 7.95177 86.6669 8.205 86.7844 8.64374C86.8503 8.85969 86.9898 9.49938 87.0925 10.065C87.1952 10.6305 87.379 11.4194 87.5037 11.8063C87.6207 12.2004 87.7162 12.5792 87.7162 12.6542C87.7162 12.736 87.6064 12.922 87.4669 13.0711C87.1369 13.4503 87.0046 13.7403 86.7257 14.6555C86.4396 15.593 86.2858 16.4786 86.3441 16.8878C86.3665 17.0588 86.5131 17.4161 86.6746 17.6912C86.836 17.9663 86.9826 18.279 87.0118 18.3832C87.0566 18.5991 87.4301 19.0006 87.7239 19.1561C87.8337 19.2156 88.1198 19.2975 88.3619 19.3347C88.6041 19.372 88.905 19.4611 89.0225 19.5207C89.2498 19.6398 89.6238 20.0417 89.6238 20.1754C89.6238 20.3986 89.9175 20.8005 90.2915 21.0979L90.717 21.4252L90.7027 22.0058C90.6879 22.6159 90.8565 23.1365 91.1645 23.4788C91.2748 23.5829 91.3188 23.7616 91.3336 24.089C91.3556 24.5059 91.3923 24.6023 91.7663 25.1606C92.2066 25.8225 92.3824 26.2094 92.3017 26.3286C92.2506 26.4195 91.7224 26.1649 90.2108 25.3165C88.3328 24.2526 87.7969 23.8212 87.3642 23.0101C87.0853 22.4672 86.9387 21.9189 86.836 20.9642C86.7992 20.5623 86.645 19.8553 86.4983 19.3643C86.075 17.9294 85.8822 17.1629 85.8822 16.8492C85.8822 16.3136 85.7499 16.0381 85.1778 15.3611C84.8697 14.9974 84.5688 14.6246 84.5101 14.5278C84.2899 14.1854 83.9231 14.2227 83.681 14.6096C83.5804 14.774 83.5302 14.965 83.5367 15.1583C83.5433 15.3517 83.6063 15.5387 83.7177 15.6958C83.9083 15.9563 84.1944 16.7746 84.1944 17.0429C84.1944 17.2211 84.1137 17.2211 83.7908 17.0279C83.5487 16.8787 83.5191 16.8787 83.3505 16.9906C82.624 17.4743 82.1106 18.5364 82.2792 19.2374C82.5142 20.2418 82.9101 21.5961 83.0644 21.9385C83.1594 22.1617 83.2258 22.3995 83.2038 22.4741C83.1375 22.675 82.8074 22.9128 82.6021 22.9128C82.1689 22.9128 80.8927 23.8357 80.8927 24.1403C80.8927 24.3413 80.5035 24.8469 79.5865 25.8366C79.1022 26.3649 78.6255 26.9451 78.5228 27.1387C78.2659 27.6147 78.178 28.2694 78.2291 29.2592C78.274 30.1967 78.1924 30.539 77.8551 30.7695C77.5543 30.9628 77.1431 30.8809 74.436 30.0926C71.5213 29.2442 70.1657 28.8946 68.1407 28.4558L66.6439 28.1376L65.2134 26.7014C64.4283 25.9053 63.6947 25.1101 63.5772 24.9282C63.3718 24.6159 63.357 24.5491 63.357 23.8794V23.1597L63.5992 23.0856C63.7238 23.0401 64.3991 22.7805 65.0789 22.5127C68.2559 21.2479 72.2253 20.2804 74.9104 20.1095C75.5194 20.0722 75.6884 20.0872 75.8866 20.1913C76.0184 20.2581 76.1211 20.34 76.1211 20.37C76.1211 20.4 76.2386 20.5709 76.3852 20.7491C77.0677 21.553 78.1977 21.6493 78.8798 20.9501C79.2591 20.5773 79.3815 20.1681 79.3376 19.4861C79.2928 18.8983 79.1686 18.69 78.6551 18.3495C78.2148 18.0522 78.1785 17.9858 78.1785 17.4857C78.1785 15.8412 79.4842 12.1663 80.416 11.1911C80.6654 10.9306 80.7681 10.8788 81.0887 10.8415C81.8958 10.7506 82.3285 10.3282 82.3142 9.64351C82.3065 8.91607 81.8299 8.40869 81.1622 8.40869C80.7658 8.40869 80.5017 8.5278 80.2304 8.81787C80.0618 8.99654 80.047 9.08565 80.0102 9.88174C79.9735 10.7374 79.9654 10.7597 79.6874 11.2002C78.7704 12.636 78.0511 14.5928 77.6991 16.5941C77.6036 17.1524 77.4861 17.6953 77.435 17.8071C77.3839 17.919 77.1857 18.1122 76.9866 18.2386C76.6198 18.4768 76.2691 18.9206 76.0839 19.3752C75.9592 19.6725 75.9812 19.6653 74.5064 19.8298C71.2437 20.189 68.0419 20.982 64.9834 22.1885C63.4059 22.806 63.0902 22.8805 62.6866 22.7314C62.2539 22.5827 61.9692 22.59 61.5862 22.7687C61.1167 22.9846 60.8239 22.9546 60.2728 22.6573C59.2971 22.114 57.6097 21.2884 56.8832 20.9906C56.4649 20.8196 56.0102 20.6109 55.8707 20.5291L55.6214 20.3731L55.834 20.2167C56.0602 20.0362 56.2735 19.8398 56.4725 19.6289C56.8904 19.2047 56.9052 19.1974 57.316 19.1974C57.6035 19.1999 57.8876 19.1335 58.1451 19.0038C58.6074 18.781 59.0419 18.7582 59.532 18.9296C60.0383 19.1156 60.471 19.0783 60.9037 18.8255C61.3661 18.565 61.5934 18.2822 61.5934 17.9994C61.5934 17.7467 61.8432 17.5607 62.3786 17.4043C62.7086 17.3134 62.7162 17.3134 62.9216 17.5407C63.0668 17.7299 63.1649 17.9519 63.2077 18.1877C63.3104 18.6878 63.6404 19.0288 64.2641 19.2665C64.6825 19.4229 65.3646 19.4748 65.5336 19.3634C65.5847 19.3261 65.7242 19.1029 65.8417 18.8574C66.1206 18.2772 66.6412 17.6966 67.0744 17.4884C67.5143 17.2875 68.1954 16.6246 68.1954 16.4023C68.1954 16.3113 68.0488 16.0749 67.8654 15.8662C67.682 15.6657 67.5353 15.4648 67.5353 15.4275C67.5353 15.2911 68.0488 14.6833 68.2322 14.6014C68.2902 14.5732 68.3534 14.5574 68.4177 14.5549C68.482 14.5524 68.5461 14.5633 68.6061 14.5869C69.0761 14.7728 69.5676 14.5569 69.7949 14.0868C69.9343 13.7894 70.0003 13.7744 70.3671 13.9231C70.5653 13.9976 70.7047 13.9826 71.4971 13.7594C71.9962 13.6257 72.4728 13.4471 72.5683 13.3725C72.6639 13.3057 72.8374 13.0543 72.9719 12.8147C73.3091 12.2118 73.5293 11.929 73.8082 11.7581C74.1311 11.5571 74.2777 11.5721 74.7916 11.8399L75.2315 12.0704L75.5691 11.9067C75.9431 11.7208 76.2368 11.3562 76.8386 10.3446C77.3081 9.54848 77.5794 9.28024 78.174 9.04246C78.7901 8.79695 78.9811 8.611 78.9811 8.25365C78.9811 7.85947 78.6807 7.54668 78.2255 7.48075C78.035 7.4512 77.8807 7.40619 77.8807 7.38391C77.8807 7.31708 78.2547 6.68467 78.695 6.01498C79.1645 5.30846 79.6488 4.88427 81.1613 3.84268C82.5115 2.91975 82.6433 2.86792 83.4428 2.8902C84.0962 2.9052 84.1329 2.89747 84.3016 2.71152C84.4042 2.60013 84.485 2.42146 84.485 2.31007C84.485 2.10911 84.2648 1.8486 84.0298 1.76449C83.9567 1.73449 83.898 1.68266 83.898 1.64537C83.898 1.52626 84.6388 0.893845 84.7782 0.893845C84.8697 0.891117 84.9648 1.02751 85.0751 1.30803H85.0746ZM25.9902 13.9267C26.0857 14.0177 26.1592 14.1495 26.1592 14.2318C26.1592 14.3059 26.3059 14.7524 26.4893 15.2211C26.7166 15.8017 26.848 16.2704 26.9 16.6869C26.9368 17.0215 27.0247 17.5507 27.0834 17.8549C27.2229 18.5173 27.135 18.8965 26.7973 19.1497C26.5041 19.3729 25.9978 19.3507 25.748 19.1124C25.5427 18.9265 24.8239 17.5125 24.6768 17.0142C24.5597 16.62 24.3396 16.4787 24.0042 16.59C23.762 16.6719 23.74 16.7019 23.6225 17.2302C23.5199 17.7135 23.4539 17.8476 23.1239 18.2345C22.0746 19.4548 22.2213 21.3893 23.3584 21.3893C23.5425 21.3836 23.7209 21.3241 23.8723 21.2179L24.1068 21.0469V21.2033C24.1068 21.3074 23.7252 21.7612 22.9916 22.535C22.3755 23.1747 21.7518 23.8744 21.6123 24.0808C21.4728 24.2963 21.2455 24.5272 21.1132 24.6014C20.9007 24.7205 20.8567 24.7205 20.6877 24.6236C20.5778 24.5641 20.3065 24.1922 20.0716 23.8053C19.7776 23.3309 19.4541 22.8761 19.103 22.4436C18.1344 21.2533 18.164 21.3129 18.164 20.7614C18.164 20.0694 18.2537 19.9581 18.8815 19.8976C19.8231 19.8007 20.3195 19.5402 20.4061 19.0792C20.4877 18.6223 21.0101 17.9222 21.9401 16.9992C22.4334 16.5082 22.9235 15.9726 23.0262 15.809C23.2611 15.4148 23.3342 15.3625 23.8113 15.1988C24.2073 15.0624 24.2221 15.0502 24.5288 14.4623C24.705 14.1272 24.9176 13.8149 25.0059 13.7703C25.2418 13.6512 25.792 13.733 25.9902 13.9267ZM53.7022 15.2657C54.3842 15.9799 54.6708 16.0695 55.0815 15.7048C55.2134 15.593 55.3896 15.4739 55.4703 15.4443C55.6465 15.392 55.925 15.5634 56.1819 15.8835C56.6514 16.4564 56.659 16.776 56.2039 17.4457C56.0189 17.714 55.8523 17.9949 55.7053 18.2863C55.5464 18.5808 55.3649 18.862 55.1622 19.1274C54.9492 19.4102 54.7735 19.7376 54.7439 19.8935C54.7143 20.0494 54.6484 20.184 54.5972 20.2063C54.5385 20.2286 54.3035 20.1986 54.069 20.1317C53.5188 19.9953 52.4995 19.8339 50.9749 19.6407C50.322 19.5589 49.7055 19.4548 49.6028 19.4175C49.3606 19.3206 48.7956 18.7923 48.6051 18.4727C48.4145 18.1677 48.3777 18.2122 49.2728 17.7508C50.0651 17.3416 51.1144 16.9619 51.4592 16.9619C51.8041 16.9619 52.3839 16.6273 52.7359 16.2404C52.9484 15.9949 53 15.8685 53.0439 15.4966C53.0735 15.2511 53.1175 15.0279 53.1394 14.9965C53.2471 14.8942 53.4161 14.9756 53.7022 15.2657ZM56.1685 19.1124C56.1685 19.2488 55.5743 19.8639 55.4425 19.8639C55.1708 19.8639 55.4277 19.3579 55.8313 19.1124C56.116 18.9337 56.1658 18.9337 56.1658 19.1124H56.1685ZM41.9936 20.1167C42.0084 20.1913 41.9201 20.4741 41.8026 20.7491C41.678 21.0169 41.5313 21.538 41.4654 21.9099C41.3832 22.3745 41.2754 22.8341 41.1426 23.2865C41.0167 23.7015 40.9162 24.1239 40.8417 24.5513C40.7022 25.4293 40.5628 25.8384 40.3426 26.0544C40.0125 26.359 39.8072 26.4336 39.2937 26.4263C38.7431 26.4113 38.4718 26.5227 38.4131 26.7832C38.3104 27.2001 38.6041 27.5943 39.257 27.9066C39.7924 28.1671 39.9538 28.1749 40.4309 27.9439C41.1717 27.5943 41.9277 26.7091 42.1111 25.9889C42.2282 25.5343 42.3676 25.5052 42.742 25.8475C43.0793 26.1603 43.2187 26.1749 43.4537 25.9517C43.7106 25.7139 43.6882 25.2597 43.3949 24.8605C43.1676 24.5423 42.7053 24.2654 42.3896 24.2576C42.1255 24.2576 42.1205 24.0644 42.3752 23.4988C42.5071 23.201 42.6317 22.8069 42.6537 22.6059C42.6685 22.4127 42.7201 22.249 42.7492 22.249C42.786 22.249 42.9546 22.3454 43.1236 22.4722C43.5416 22.7846 43.8792 22.7773 44.0478 22.4645C44.268 22.0481 44.6128 21.6166 44.7523 21.5943C44.8258 21.5793 45.0456 21.728 45.3025 21.9735C45.8088 22.4645 46.007 22.5464 46.2123 22.3372C46.4253 22.114 46.4029 21.6302 46.1536 21.1392C45.8397 20.5291 45.985 19.9412 46.4545 19.9412C46.55 19.9412 46.7773 20.1126 47.0414 20.3877C47.2764 20.6332 47.5257 20.8342 47.5988 20.8342C47.8266 20.8342 47.8706 21.0501 47.7163 21.4888C47.2908 22.7241 46.8728 25.2242 46.6231 28.0512C46.572 28.6018 46.5334 29.0632 46.528 29.0705C46.5226 29.0778 45.9114 29.2565 45.163 29.4652C43.5936 29.9039 41.7147 30.5213 40.365 31.0423L39.4188 31.3997L37.4288 30.3976C35.2863 29.3188 34.0316 28.7755 32.4617 28.2399C30.0183 27.4138 27.7731 26.9214 24.618 26.5209C22.5347 26.2531 22.4464 26.2235 22.2262 25.6952C22.1208 25.4863 21.9902 25.2914 21.8374 25.1151C21.5809 24.81 21.5513 24.7514 21.6101 24.5495C21.6997 24.2367 21.9769 23.8948 22.9158 22.9719C23.8575 22.0422 24.31 21.7221 24.6987 21.7221C24.9265 21.7221 25.0216 21.6702 25.2566 21.417C25.6453 21.0006 25.8947 20.8814 26.4305 20.8714C26.8265 20.8642 26.9238 20.8942 27.23 21.1097C27.5968 21.3775 27.7291 21.3852 28.1914 21.1915C28.426 21.0947 28.4336 21.1006 28.7197 21.4147L29.0206 21.7421L29.4385 21.6966C29.6735 21.6743 30.2385 21.5998 30.7008 21.5329C31.2362 21.4584 31.6178 21.442 31.7644 21.4807C31.8891 21.5179 32.2196 21.7189 32.4908 21.9353C32.7599 22.1435 33.0119 22.3145 33.041 22.3145C33.65 22.3222 34.78 22.7537 34.8607 23.0142C34.9266 23.2297 35.0221 23.282 35.354 23.282C35.8311 23.282 36.4181 22.8873 36.5427 22.4782C36.5647 22.3872 36.6324 22.3145 36.6745 22.3145C36.836 22.3145 37.7167 23.3415 38.1126 24.0035C38.7292 25.0155 39.0153 25.261 39.3682 25.0674C39.6619 24.9114 39.7646 24.5613 39.735 23.8771C39.6839 22.5677 39.6982 22.4186 39.9919 21.8162C40.3587 21.0574 41.452 19.9112 41.7676 19.9485C41.8968 19.9681 41.9775 20.0276 41.9923 20.1167H41.9936ZM51.8691 20.0499C54.6134 20.3772 57.3205 21.2552 59.5728 22.5573C60.967 23.3684 61.1423 23.6734 60.549 24.2313C60.38 24.3949 59.6464 24.9305 58.9199 25.4365C58.1935 25.9366 57.4671 26.4486 57.2985 26.5677C57.064 26.7459 56.8949 26.8055 56.5362 26.8355C55.9496 26.895 55.7219 26.7759 55.3255 26.2103C54.0192 24.3504 52.53 22.7878 50.6736 21.3297C49.7127 20.5782 49.2432 20.1245 49.3091 20.0199C49.3732 19.9012 50.7602 19.9158 51.8677 20.0499H51.8691ZM28.1031 20.4964C28.1031 20.6673 28.0583 20.7346 27.9054 20.7864C27.6264 20.8833 27.3036 20.7641 27.2744 20.5482C27.243 20.35 27.4673 20.2358 27.8466 20.259C28.0811 20.2731 28.1031 20.2954 28.1031 20.4964ZM49.7916 20.9651C51.7579 22.2745 54.5824 25.2356 55.2134 26.6568C55.2974 26.842 55.3472 27.0413 55.3604 27.2447C55.3604 27.6689 55.199 27.7357 53.7681 27.9066C52.2054 28.0853 51.9193 28.1299 49.1678 28.5763C47.3553 28.8741 46.8858 28.9259 46.8361 28.8518C46.6231 28.539 47.232 23.7475 47.6943 22.1331C47.9293 21.3074 48.1427 20.9724 48.553 20.7641C49.0064 20.5318 49.1898 20.5632 49.7916 20.9651ZM15.0143 21.2479C15.6453 22.0813 16.4448 22.3045 17.3326 21.9099C17.5896 21.7907 17.8259 21.7312 17.9268 21.7612C18.3232 21.858 19.3209 23.0928 19.9299 24.2385L20.1792 24.7L19.7245 25.1315C19.4752 25.3624 19.2182 25.6598 19.1595 25.7939C19.0348 26.0467 18.9025 26.1062 17.6187 26.4486C15.9753 26.88 14.5812 27.6538 13.1063 28.941C12.344 29.6034 11.8153 29.953 11.4629 30.0198C11.149 30.0794 11.1257 30.0126 11.3015 29.5884C11.4925 29.1196 11.4485 28.9482 11.0082 28.4349C10.4432 27.7802 10.4652 27.5793 11.0741 27.8025C11.6122 28.0035 11.8593 27.7571 12.0427 26.8205C12.1602 26.2404 12.4315 25.5779 12.5857 25.4811C12.6306 25.4515 12.7691 25.2951 12.8866 25.1315C13.1557 24.7373 13.1557 24.4545 12.879 23.8071C12.6297 23.2342 12.6149 23.0706 12.7615 22.7805C12.857 22.6018 14.5812 20.831 14.6619 20.831C14.6767 20.831 14.8381 21.0169 15.0143 21.2479ZM43.5111 21.9412C43.5111 22.1717 43.3568 22.224 43.2541 22.0231C43.1586 21.8444 43.2174 21.7103 43.3887 21.7403C43.4595 21.7539 43.5111 21.8357 43.5111 21.9412ZM42.2268 22.4022C42.2268 22.5213 42.095 22.9305 41.9407 23.3115C41.552 24.249 41.5228 24.435 41.7062 24.6209C41.8051 24.7135 41.931 24.7709 42.0649 24.7846C42.1821 24.7874 42.2983 24.8075 42.4098 24.8441C42.5273 24.8964 42.5201 24.911 42.3201 24.9482C42.1954 24.9705 41.9681 25.1197 41.8268 25.2665C41.5995 25.5043 41.5627 25.5848 41.6067 25.7666C41.6582 26.0121 41.4672 26.3395 40.9686 26.8605C40.6309 27.2174 39.956 27.6043 39.6915 27.6043C39.5596 27.6043 38.7014 27.0614 38.7014 26.9796C38.7014 26.9646 38.9727 26.9646 39.3103 26.9646C39.8897 26.9719 39.9264 26.9646 40.2785 26.7041C40.521 26.514 40.7316 26.2854 40.9022 26.0271C41.0417 25.8039 41.2161 25.5361 41.2838 25.432C41.4085 25.2606 41.4085 25.2238 41.2986 24.911C41.1959 24.5927 41.1959 24.5241 41.3134 24.0553C41.5259 23.1774 41.9587 22.1731 42.1205 22.1731C42.1905 22.1685 42.2268 22.2522 42.2268 22.4009V22.4022ZM61.4427 24.865C61.8243 25.0956 61.8974 25.1106 62.4405 25.0956C62.9615 25.081 63.0566 25.1033 63.3207 25.2742C63.6292 25.4825 66.1677 27.9753 66.1161 28.0271C66.1018 28.0421 65.8152 28.0198 65.478 27.9816C65.1404 27.9362 63.6216 27.8553 62.1104 27.7884C58.6473 27.647 57.033 27.5425 56.9451 27.4533C56.9003 27.4079 56.9155 27.342 56.9743 27.2674C57.1797 27.0146 59.3293 25.5038 60.4961 24.7973C60.8481 24.5809 60.9638 24.5886 61.4427 24.8637V24.865ZM24.479 26.7832C28.5067 27.3288 32.0285 28.2194 34.8239 29.4247C36.1302 29.9903 38.1992 31.0614 38.5364 31.3592L38.8081 31.5897L38.1476 31.9693C37.7889 32.1698 37.1647 32.5199 36.7611 32.7354C35.1248 33.5993 32.9971 35.1832 31.8084 36.4112C31.5075 36.7236 31.2362 36.9764 31.2142 36.9764C31.1851 36.9764 31.0236 36.5299 30.8555 35.987C30.1829 33.8366 29.1753 32.1107 27.6641 30.5108C26.5431 29.3288 25.6391 28.6509 24.0028 27.773C21.8742 26.6273 21.9549 26.4486 24.479 26.7832ZM19.0057 26.9023C19.2698 27.3192 19.233 27.4902 18.6469 28.5691C17.4811 30.6745 16.9228 32.5699 16.6587 35.2523C16.4824 37.0305 16.3282 37.2014 14.6776 37.5065C12.7046 37.8702 11.5521 38.3994 10.0553 39.6197C8.25673 41.0818 7.33972 40.9422 7.19892 39.1723C7.1801 38.8846 7.14083 38.5986 7.08144 38.3167C6.97875 37.9593 6.98592 37.5951 7.09623 37.5278C7.14735 37.4906 7.36035 37.446 7.58052 37.4165C7.79307 37.3865 8.05719 37.2973 8.15987 37.2228C8.59304 36.9104 8.65313 36.8954 9.18001 36.94C9.61273 36.9773 9.72305 36.97 9.80331 36.8659C10.0679 36.5531 10.1118 36.5308 10.4347 36.5308C10.7486 36.5308 10.8087 36.5013 11.2342 36.0843C11.4911 35.8388 11.814 35.5842 11.9517 35.5265C12.2521 35.3928 12.3256 35.1992 12.2656 34.6859C12.1925 34.0757 12.075 33.6293 11.8768 33.1755C11.6494 32.6695 11.6638 32.6472 12.2068 32.2976C12.405 32.1635 12.6252 31.9402 12.7207 31.7616C12.8965 31.4492 12.8965 31.2928 12.757 30.4149C12.7122 30.1471 12.735 30.1098 13.2503 29.567C14.1501 28.6306 15.2351 27.8978 16.434 27.4165C16.9475 27.201 18.5321 26.7346 18.7523 26.7173C18.8218 26.7091 18.9321 26.7982 19.0057 26.9023ZM23.136 27.758C26.1296 28.9632 29.2699 32.5495 30.334 35.957C30.4586 36.3517 30.5613 36.7386 30.5613 36.8127C30.5613 36.8868 30.4219 37.0805 30.2604 37.2369C29.7394 37.7429 29.6295 38.2266 29.9017 38.7695C30.0779 39.1191 30.6281 39.506 30.951 39.506C31.2649 39.506 31.4353 39.3946 31.8976 38.8886L32.3155 38.4271L32.8146 38.4349C33.7025 38.4421 34.8029 38.8368 35.7495 39.4915C36.2557 39.8411 37.3046 40.9422 37.4808 41.2991C37.5911 41.5374 37.5911 41.5669 37.4736 41.7679C37.2902 42.0729 36.879 42.2962 36.6149 42.2293C36.2925 42.1475 35.7418 41.5301 35.5952 41.0927C35.4338 40.6017 35.3019 40.423 34.9643 40.2521C34.4213 39.9693 33.8563 39.8725 32.3231 39.8056C30.5035 39.7147 29.843 39.6347 29.0049 39.3964C28.6529 39.2923 28.3004 39.2105 28.2197 39.2105C27.9776 39.2105 27.6843 39.5228 27.6327 39.8352C27.6107 39.9988 27.53 40.1534 27.4641 40.1853C27.3906 40.2221 27.2735 40.2816 27.2072 40.3116C27.1341 40.3489 27.0094 40.4903 26.9359 40.639C26.8348 40.8011 26.6994 40.9384 26.5395 41.0409C26.0776 41.2937 26.0776 41.2937 26.4368 42.5958C26.4736 42.7445 26.4736 42.7444 26.3193 42.6031C26.2296 42.5212 26.0054 42.4244 25.8131 42.3726C25.544 42.3057 25.4243 42.2239 25.3144 42.0452C25.0005 41.5242 24.7346 41.3087 24.0817 41.0409C23.7077 40.8845 23.3194 40.7727 23.1427 40.7727C22.7392 40.7727 22.4253 40.4544 22.1961 39.8056C22.0495 39.3892 21.932 39.2328 21.3966 38.6895C21.0442 38.3398 20.6114 37.9752 20.4204 37.8784C20.0904 37.6924 20.0756 37.6924 19.2832 37.7875C18.6671 37.862 18.4398 37.8693 18.3147 37.8025C18.234 37.7502 18.1609 37.6833 18.1609 37.6461C18.1609 37.6088 17.9846 37.3855 17.7645 37.1459C17.5519 36.9077 17.3317 36.5876 17.2802 36.424C17.1703 36.0816 17.1703 34.8841 17.2878 34.1326C17.625 31.8557 18.8505 28.7223 19.5913 28.2249C19.7088 28.1503 20.0536 28.0885 20.6114 28.0462C21.3966 27.9944 21.4773 27.9721 21.7634 27.7561C22.1679 27.4602 22.4172 27.4602 23.136 27.758ZM62.4037 27.9366C65.2798 28.1521 65.9403 28.264 66.4538 28.6063C66.7986 28.8368 67.8183 30.2135 68.6622 31.5824C69.8653 33.5315 71.1285 36.2844 71.663 38.1225L71.8244 38.6876L71.6042 38.9186C71.2814 39.2605 71.0173 39.3796 70.6796 39.3278C70.5258 39.2978 69.7774 39.0746 69.0205 38.8277C66.9806 38.1657 64.6623 37.6001 62.6373 37.2728C61.2652 37.0496 60.9495 36.9454 60.6266 36.5958C60.4728 36.4394 60.3042 36.3053 60.2455 36.3053C60.0912 36.3053 59.9517 36.008 59.5338 34.7595C59.0406 33.3083 58.5213 32.0212 57.7142 30.3099C57.3474 29.5215 57.0097 28.7254 56.9581 28.5368C56.8483 28.1053 56.9362 27.9862 57.4572 27.9044C58.0675 27.8025 60.819 27.8175 62.4037 27.9366ZM55.1394 28.1671C55.1394 28.234 54.6111 28.8368 53.9654 29.5138C52.0283 31.5302 50.5391 33.4201 49.1674 35.6002C48.7418 36.2771 48.3383 36.835 48.2284 36.8945C48.0741 36.9855 47.9715 36.9914 47.6414 36.9095C47.0101 36.7681 47.0101 36.7681 46.924 35.7115C46.8509 34.8336 46.6231 29.3724 46.6549 29.3429C46.6621 29.3351 47.2343 29.2087 47.9168 29.0673C50.0153 28.6209 53.7426 28.0703 54.6878 28.0558C55.0595 28.048 55.1403 28.0703 55.1403 28.1671H55.1394ZM56.533 28.7923C57.3917 29.8039 59.5854 35.1387 59.5266 36.0612C59.5047 36.4035 59.4899 36.4249 59.1679 36.5895C58.8011 36.7681 58.728 36.7754 54.5385 36.9764C52.6309 37.0673 51.4718 37.1923 50.0409 37.4601C48.7791 37.6983 48.7055 37.6983 48.5957 37.4601C48.493 37.2219 48.6405 36.8873 49.2997 35.8607C50.8628 33.451 53.834 29.8934 55.2134 28.7996C55.595 28.4945 55.6317 28.4813 55.9837 28.5245C56.2626 28.5613 56.3949 28.6209 56.5339 28.7923H56.533ZM68.177 28.6804C70.1142 29.0442 72.9751 29.8116 75.3454 30.6077C76.8274 31.1078 77.3408 31.3442 77.3996 31.5674C77.4215 31.6584 77.5538 31.8725 77.6933 32.0435C78.104 32.5199 78.126 32.6463 77.9574 33.4274C77.7812 34.2458 77.7664 34.8336 77.9206 34.9677C77.9937 35.0273 78.2435 35.0587 78.6251 35.0496C79.1605 35.0418 79.234 35.0568 79.4394 35.2282C79.7981 35.5406 80.6573 35.4142 81.0461 34.9973C81.1927 34.8336 81.2223 34.7368 81.2075 34.3649C81.1927 33.963 81.2075 33.9184 81.3617 33.8516C81.6846 33.7325 82.1689 33.9111 82.7191 34.3576C83.159 34.7213 83.4231 35.1164 83.6065 35.6893C83.7066 35.9826 83.8371 36.2644 83.9957 36.5299C84.758 37.6761 84.9275 37.9511 85.0961 38.3976C85.4481 39.2978 85.5289 40.0048 85.5656 42.594C85.6172 46.0611 85.4849 47.1918 84.9639 47.6905C84.8172 47.8319 84.6997 47.8542 84.0984 47.8615C83.4966 47.8765 83.381 47.8542 83.2397 47.7278C83.0052 47.5119 82.7998 47.0654 82.7998 46.7681C82.7998 46.5371 82.8361 46.4926 83.2034 46.2843C83.4231 46.1579 83.6361 45.9865 83.6872 45.8974C83.8343 45.6146 83.6289 43.9333 83.3572 43.1595C83.2878 42.9607 83.2482 42.7524 83.2397 42.5417C83.2397 42.1848 83.0931 41.8947 82.7998 41.6324C82.4913 41.3719 82.2716 41.3273 82.0075 41.4687C81.6936 41.6324 81.2223 42.1961 81.1268 42.5476C81.0241 42.8749 80.5837 43.2991 80.3416 43.2991C80.2519 43.2991 80.0726 43.18 79.9309 43.0309C79.4762 42.5476 79.3735 42.5176 78.0601 42.5176C76.6807 42.5176 76.8045 42.5699 75.6167 41.476C74.6925 40.6276 74.1055 40.1575 73.6885 39.9434C73.4885 39.8356 73.3135 39.6859 73.175 39.5042C73.0795 39.3628 72.8446 39.125 72.6468 38.9759C72.1697 38.6122 72.0598 38.418 71.75 37.4301C71.0092 35.0268 69.2187 31.6338 67.4286 29.2383C66.9802 28.6354 66.9004 28.494 67.0179 28.494C67.0995 28.4945 67.6205 28.5763 68.1779 28.6804H68.177ZM46.2845 29.6702C46.3504 29.7448 46.4383 29.9675 46.4751 30.1703C46.6365 31.026 46.7024 36.308 46.5558 36.7327C46.3724 37.261 45.9984 37.09 44.7581 35.9293C43.6429 34.8877 42.2416 33.6674 40.9726 32.6404C40.378 32.1644 39.8794 31.7257 39.8569 31.6661C39.791 31.5024 40.4367 31.2269 42.5057 30.5295C45.6532 29.4692 46.0348 29.3874 46.2845 29.6702ZM5.40257 30.2358C5.5936 30.3694 5.80614 30.429 6.23931 30.4663C7.22941 30.5481 7.60384 30.645 7.9267 30.9128C8.33744 31.2474 8.46973 31.3069 8.92442 31.3592C9.51139 31.4333 10.4652 31.9171 10.7513 32.2967C11.023 32.6313 11.6319 33.7993 11.6319 33.963C11.6319 34.1416 11.4557 34.0994 10.3553 33.6584C8.8585 33.0482 8.2926 32.8855 7.75047 32.8855C7.32492 32.8855 7.17829 32.9309 6.41509 33.2946C5.9456 33.5179 5.52723 33.7038 5.48329 33.7038C5.44652 33.7038 5.32186 33.5179 5.212 33.2946C5.10169 33.0637 4.74968 32.5877 4.42682 32.2303C3.80308 31.5533 3.56856 31.1442 3.56093 30.7573C3.56093 30.4599 3.67124 30.3704 4.11876 30.3108C4.3052 30.2845 4.48765 30.2346 4.66179 30.1621C4.93308 30.0198 5.10931 30.0339 5.40257 30.2358ZM40.1215 32.3563C41.4219 33.2565 43.8043 35.3115 45.1617 36.7086L45.7783 37.3487L45.6886 37.6983C45.5271 38.3157 45.2191 38.7772 44.8595 38.9632C44.6837 39.0541 43.7443 39.5287 42.7761 40.012C41.808 40.4953 40.7654 41.0464 40.465 41.2323C39.7027 41.6938 39.6942 41.6938 39.1076 41.5078C38.3225 41.2546 38.3005 41.2396 37.3539 40.2948C35.6369 38.5913 34.9401 38.1894 33.1276 37.862C32.2034 37.6906 31.7779 37.5047 31.6164 37.185C31.5137 36.9841 31.5209 36.9618 31.8146 36.6395C33.0617 35.2705 36.1871 33.1423 38.4032 32.1603C39.2041 31.8129 39.3583 31.828 40.1215 32.3563ZM5.05774 34.0448C5.24114 34.298 5.1824 34.7963 4.94788 34.99C4.75685 35.1464 4.41202 35.1164 4.23625 34.9377C4.14656 34.8468 4.14656 34.8113 4.24342 34.6627C4.31718 34.5246 4.37152 34.3768 4.40485 34.2235C4.49274 33.7993 4.8156 33.7165 5.05774 34.0448ZM58.8087 37.3337C58.9926 37.4055 59.1618 37.5114 59.3074 37.6461C59.4577 37.7805 59.6257 37.8932 59.8065 37.9811C59.8854 38.0122 59.9574 38.0592 60.0179 38.1193C60.0784 38.1794 60.1262 38.2513 60.1585 38.3307C60.489 39.1268 61.0105 43.8811 61.0105 46.0388C61.0105 47.0209 61.0105 47.0359 60.8127 47.2368C60.475 47.5787 58.685 48.1966 58.3464 48.0924C58.2567 48.0702 57.9944 47.8615 57.7666 47.6378C57.5321 47.4223 57.1653 47.1545 56.9451 47.0504C56.5487 46.8717 55.1183 46.4998 54.7878 46.4998C54.5605 46.4998 53.9515 47.0872 53.7829 47.4741C53.6583 47.7419 53.6583 47.8165 53.7381 48.1961C53.9215 49.0072 53.9215 49.0072 53.7381 49.1113C53.5322 49.2227 52.9453 49.2227 52.4906 49.1113C52.3144 49.0658 51.8745 48.8731 51.5072 48.6944C50.6709 48.2629 50.1355 48.1438 49.6512 48.2702C49.4602 48.3225 48.6091 48.7167 47.7679 49.1409C46.9159 49.5723 46.1904 49.9219 46.1608 49.9219C46.1312 49.9219 45.9554 49.7883 45.772 49.6246C45.4639 49.3345 45.442 49.3268 45.0899 49.3714C44.7962 49.4086 44.7155 49.3936 44.6787 49.3045C44.4882 48.7985 45.6769 43.9697 46.572 41.6483C46.9755 40.5922 47.1881 40.3016 47.6432 40.1753C48.2374 40.0193 48.6338 39.5056 48.7952 38.6949C48.8535 38.4121 48.9342 38.2485 49.0593 38.1493C49.418 37.8738 51.8251 37.4574 54.0407 37.2787C55.1842 37.1923 58.4783 37.2296 58.8087 37.3337ZM63.3377 37.6833C66.104 38.1744 69.8895 39.2605 70.6819 39.7888C70.9756 39.9825 70.8949 40.213 70.2931 40.8081C69.4411 41.6488 69.3321 42.0584 69.8236 42.5567L70.1317 42.8618L70.0729 43.3619C70.0366 43.6374 70.007 44.2102 69.9922 44.6349C69.9631 45.8847 69.7796 46.0261 68.0407 46.1229C67.395 46.1602 66.83 46.227 66.7273 46.2793C66.6322 46.3312 66.3165 46.5976 66.0376 46.8667C64.93 47.9233 64.3942 48.2507 63.6018 48.3325C62.8844 48.4143 62.4808 48.2416 61.797 47.6051L61.232 47.0595L61.1589 45.2736C61.0634 43.1086 60.9167 41.3678 60.6818 39.7306C60.4836 38.3839 60.4616 37.9079 60.5719 37.6029L60.6526 37.4019L61.4741 37.4474C61.927 37.4751 62.7633 37.581 63.3355 37.6833H63.3377ZM15.6596 38.1966C15.7847 38.3453 15.6964 38.4794 15.3367 38.7099C15.1462 38.8218 14.9699 39.0004 14.926 39.1118C14.8085 39.4242 14.9112 40.1907 15.1681 40.9495L15.3883 41.6192L15.1901 41.7679C15.0586 41.8763 14.9532 42.0138 14.8821 42.1698L14.7794 42.4303L14.1265 42.3848C13.5543 42.3394 13.4588 42.3548 13.2974 42.4812C13.2018 42.563 12.9745 42.6449 12.7983 42.6749C12.5844 42.7065 12.3877 42.8114 12.2409 42.9722C12.0131 43.1955 11.9987 43.2405 11.9987 43.7238C11.9987 44.1702 11.9692 44.2821 11.7714 44.6017C11.4485 45.1154 11.4042 45.2641 11.3382 46.0079C11.2795 46.7299 11.1768 46.9086 10.9566 46.648C10.7732 46.4175 10.5387 45.7388 10.4504 45.1377C10.3477 44.4976 10.1813 44.1779 9.58493 43.501C9.29122 43.1736 9.13652 42.9281 9.13652 42.819C9.13652 42.7149 9.16567 42.6331 9.20244 42.6331C9.3123 42.6331 9.41499 42.2534 9.45893 41.7029C9.5105 41.0554 9.6791 40.7936 10.5082 40.0661C11.5136 39.1882 12.5848 38.6154 13.8686 38.2803C14.6251 38.0702 15.5278 38.033 15.6596 38.1966ZM46.0644 39.707C46.3944 40.0198 46.6733 40.3171 46.6881 40.3694C46.7024 40.4148 46.4971 41.0759 46.2397 41.8274C45.6455 43.5314 45.1832 45.2054 44.7577 47.155C44.5819 47.9806 44.4128 48.6949 44.3909 48.7321C44.325 48.8435 44.2514 48.7776 43.8115 48.2188C43.2905 47.5564 43.0335 47.43 42.3439 47.4969L41.8228 47.5491L41.5663 47.2441C41.3681 47.0136 41.2215 46.9258 40.9426 46.8499C40.5906 46.759 40.5686 46.7458 40.4143 46.3498C40.3246 46.1193 40.187 45.5837 40.1004 45.1595L39.9466 44.378L40.1081 43.696C40.2695 43.0263 40.2695 43.0113 40.1372 42.5203C40.0126 42.0443 40.0125 42.0293 40.1448 41.8806C40.3206 41.6797 41.6192 40.8986 42.6111 40.3848C43.5138 39.9238 45.2379 39.1427 45.3698 39.1427C45.4186 39.1341 45.7267 39.3946 46.0644 39.707Z" fill="#A70000"/>
<path fill-rule="evenodd" clip-rule="evenodd" d="M77.2414 2.32709C76.8711 2.72672 77.0267 3.69102 77.4562 3.69102C77.6042 3.69102 77.6782 3.61555 77.8114 3.3514C77.9907 2.98178 78.0356 2.38574 77.8854 2.23479C77.7352 2.08385 77.4172 2.13068 77.2414 2.32709Z" fill="#A70000"/>
<path fill-rule="evenodd" clip-rule="evenodd" d="M39.7712 6.63859C39.7485 6.76678 39.7509 6.89825 39.7783 7.02549C39.8366 7.271 40.1931 7.86568 40.3967 8.05163C40.542 8.18529 40.542 8.17802 40.542 7.88068C40.542 7.70973 40.5711 7.56834 40.6146 7.56834C40.7895 7.56834 41.4151 6.85454 41.4151 6.64632C41.4151 6.63131 41.2402 6.63131 41.0222 6.65359C40.724 6.68314 40.5859 6.66859 40.4622 6.57175C40.3389 6.49694 40.1986 6.45589 40.055 6.45264C39.8658 6.45264 39.8075 6.48992 39.7712 6.63859Z" fill="#A70000"/>
<path fill-rule="evenodd" clip-rule="evenodd" d="M42.2442 7.08952C41.9819 7.25365 41.69 7.61191 41.7267 7.72375C41.7635 7.83559 42.0913 7.90288 42.2733 7.83559C42.4975 7.74466 42.4778 7.61918 42.237 7.61918C42.0765 7.61918 42.0545 7.60418 42.1424 7.54462C42.2007 7.50734 42.441 7.47006 42.6747 7.47006C43.1486 7.47006 43.2729 7.34321 43.054 7.09679C42.8863 6.91039 42.5343 6.90266 42.2442 7.08952Z" fill="#A70000"/>
<path fill-rule="evenodd" clip-rule="evenodd" d="M41.0115 7.81434C40.8703 7.97892 40.8407 8.06849 40.9003 8.08349C40.9523 8.10577 41.0564 8.03803 41.1245 7.9471C41.2061 7.8348 41.2954 7.79025 41.377 7.8198C41.4734 7.85753 41.481 7.84253 41.3994 7.72296C41.2779 7.52246 41.242 7.53746 41.0115 7.81434Z" fill="#A70000"/>
<path fill-rule="evenodd" clip-rule="evenodd" d="M42.9305 7.91153C42.7532 8.03338 42.5558 8.12193 42.3476 8.17296C41.7256 8.32208 41.6301 8.35981 41.5942 8.45665C41.5135 8.71808 42.5964 8.86584 43.0937 8.65852C43.3278 8.55395 43.3718 8.55395 43.4816 8.65852C43.5471 8.71808 43.635 8.77036 43.6789 8.77036C43.796 8.77036 44.1471 8.32208 44.0959 8.24024C44.074 8.20296 43.913 8.17296 43.73 8.17296C43.4668 8.17296 43.4081 8.15068 43.4081 8.03656C43.4081 7.90972 43.2767 7.71558 43.196 7.72285C43.1008 7.77544 43.0117 7.83874 42.9305 7.91153Z" fill="#A70000"/>
<path fill-rule="evenodd" clip-rule="evenodd" d="M50.2475 9.45927C49.9829 9.74888 49.9166 9.90437 49.8578 10.3945C49.8282 10.6468 49.7623 10.8491 49.6959 10.8846C49.4973 10.996 49.6152 11.2856 49.9094 11.4265C50.0932 11.5175 50.174 11.597 50.1448 11.6638C50.0932 11.8052 50.608 12.3249 51.0049 12.5327C51.299 12.6809 51.4609 12.6886 51.8654 12.5622C52.0272 12.5104 52.0272 12.5168 51.9829 12.941C51.9021 13.587 51.9093 13.5943 52.0492 13.6229C52.1228 13.6379 52.4685 13.532 52.8214 13.3929C53.1743 13.2537 53.52 13.1201 53.5864 13.096C53.6671 13.0664 53.6967 12.9996 53.6671 12.8955C53.6084 12.68 53.0348 12.0494 52.7111 11.8498L52.4465 11.6861L52.2331 11.9239C51.9757 12.2135 51.8802 12.169 51.8802 11.7607C51.8802 11.4338 51.7622 11.1592 51.4093 10.6618C51.26 10.4545 51.1663 10.2116 51.1371 9.95665C51.108 9.7266 51.0273 9.48155 50.9537 9.39971C50.769 9.19194 50.4672 9.22149 50.2475 9.45927ZM50.7035 10.3722C50.7035 10.7286 50.586 10.8268 50.4757 10.5431C50.4502 10.4834 50.437 10.4189 50.437 10.3538C50.437 10.2886 50.4502 10.2242 50.4757 10.1644C50.5851 9.92665 50.7026 10.0299 50.7026 10.3722H50.7035ZM51.0546 11.3301C51.3784 11.5675 51.4739 11.768 51.4075 12.0503C51.3049 12.4595 50.8928 12.1467 50.665 11.4784C50.6062 11.3079 50.5547 11.1601 50.5547 11.1442C50.5556 11.0551 50.791 11.1442 51.0546 11.3301ZM52.9079 12.8073C52.9079 12.9632 52.7757 13.1192 52.6357 13.1192C52.4887 13.1192 52.4371 12.9114 52.5402 12.785C52.6734 12.6291 52.9088 12.6441 52.9088 12.8073H52.9079Z" fill="#A70000"/>
<path fill-rule="evenodd" clip-rule="evenodd" d="M67.1311 10.1252C66.702 10.2857 66.1132 10.6076 66.1132 10.6803C66.1132 10.8194 66.4841 10.9872 66.7603 10.9872C67.1455 10.9799 67.6123 10.7317 67.7468 10.4539C67.9526 10.0665 67.6836 9.9206 67.1311 10.1252Z" fill="#A70000"/>
<path fill-rule="evenodd" clip-rule="evenodd" d="M64.6622 10.9913C64.559 11.0609 64.468 11.1476 64.3932 11.2477C64.3277 11.3387 64.1689 11.4369 64.0219 11.4669C63.5631 11.5578 63.4318 12.0029 63.7012 12.5467C63.8613 12.8713 64.1456 13.1377 64.408 13.2036C64.6627 13.2718 64.9909 13.0982 65.4057 12.6753C66.1048 11.9579 66.2796 11.2555 65.8133 11.0063C65.5581 10.8704 64.8954 10.8627 64.6622 10.9913ZM65.5945 11.7615C65.5945 11.8897 65.4415 12.1161 65.1066 12.4789C64.8443 12.7731 64.6039 12.9999 64.5748 12.9922C64.5456 12.9772 64.3999 12.8185 64.247 12.6376L63.9779 12.2975L64.2842 12.2066C64.4514 12.1534 64.6627 12.0402 64.7501 11.9574C64.9469 11.7683 65.3034 11.5719 65.4711 11.5719C65.551 11.5724 65.5945 11.6328 65.5945 11.7615Z" fill="#A70000"/>
<path fill-rule="evenodd" clip-rule="evenodd" d="M65.6722 13.2889C65.5982 13.4094 66.1094 14.0059 66.369 14.1191C66.569 14.2023 66.6286 14.1873 66.9322 14.0136C67.3474 13.7644 67.4734 13.553 67.2806 13.4476C67.1178 13.3566 66.2941 13.2134 65.9538 13.2134C65.826 13.212 65.6928 13.2511 65.6722 13.2889Z" fill="#A70000"/>
<path fill-rule="evenodd" clip-rule="evenodd" d="M42.3471 13.7617C42.2664 13.7844 42.078 13.844 41.922 13.904C41.7318 13.9785 41.3359 14.0085 40.6032 14.0085C39.8925 14.0085 39.431 14.0458 39.1597 14.1208C38.94 14.1809 38.6104 14.2777 38.427 14.3227C38.1925 14.3827 38.0535 14.48 37.9508 14.6369C37.8706 14.7564 37.5262 15.0333 37.1818 15.2352C36.8298 15.452 36.5293 15.6898 36.4854 15.7885C36.4579 15.8449 36.4177 15.8939 36.3681 15.9317C36.3185 15.9694 36.2608 15.9948 36.1998 16.0058C36.0827 16.0281 35.7603 16.245 35.4742 16.4918C35.1958 16.731 34.9029 16.9256 34.8222 16.9256C34.7118 16.9256 34.6041 16.9601 34.5137 17.0244C34.4233 17.0886 34.3546 17.1795 34.3169 17.2847C34.2581 17.4416 34.2801 17.5612 34.4411 17.9212C34.6021 18.2813 34.6245 18.4373 34.5877 18.6991C34.5657 18.886 34.5805 19.0956 34.6173 19.1774C34.7272 19.372 35.4245 19.8435 35.6137 19.8435C35.8334 19.8435 35.8702 19.6939 35.8186 19.0956C35.7738 18.6318 35.7895 18.5345 35.9652 18.1681C36.2146 17.6521 37.0352 16.8442 37.4378 16.7246C37.5993 16.6723 37.8925 16.4927 38.0975 16.3204C38.4858 15.9917 38.801 15.8044 38.962 15.8044C39.0136 15.8044 39.2113 15.6998 39.4019 15.5725C39.8265 15.2884 40.0099 15.2361 41.1893 15.0565C42.4646 14.8696 42.8968 14.6528 42.8968 14.1963C42.8968 13.874 42.6767 13.7021 42.3471 13.7617ZM40.2588 14.8237C39.2275 15.1606 37.145 16.4095 36.2805 17.2247C35.7747 17.6957 35.5989 18.0176 35.5038 18.6532C35.459 18.9074 35.394 19.1533 35.3572 19.1915C35.2325 19.3188 35.1227 19.1692 35.1666 18.9151C35.1958 18.7787 35.1666 18.4886 35.1079 18.2645C35.0568 18.0399 35.0182 17.8153 35.042 17.7644C35.0568 17.7121 35.2254 17.5925 35.4083 17.4952C35.6138 17.3852 35.8037 17.2475 35.9729 17.086C36.0899 16.9592 36.3096 16.8169 36.4562 16.7796C36.5444 16.7569 36.6271 16.7159 36.6989 16.6592C36.7707 16.6026 36.8303 16.5315 36.8737 16.4504C37.0715 16.1063 38.5593 15.0742 39.1606 14.8592C39.4789 14.7483 39.8133 14.6927 40.1498 14.6946L40.6628 14.7023L40.2588 14.8237Z" fill="#A70000"/>
<path fill-rule="evenodd" clip-rule="evenodd" d="M87.54 16.7647C87.4642 17.0207 87.5745 17.5108 87.7539 17.729L87.9126 17.9327L87.9193 17.5108C87.9193 17.0207 87.809 16.6143 87.6781 16.6143C87.6229 16.6143 87.5611 16.682 87.54 16.7647Z" fill="#A70000"/>
<path fill-rule="evenodd" clip-rule="evenodd" d="M56.8362 17.7049C56.6022 17.9372 56.617 18.0845 56.8874 18.114C57.0995 18.145 57.4869 17.8122 57.4281 17.6417C57.3775 17.4648 57.0483 17.4957 56.8362 17.7049Z" fill="#A70000"/>
<path fill-rule="evenodd" clip-rule="evenodd" d="M7.17995 18.9329C7.11314 19.107 7.60236 20.1073 7.92881 20.486C8.23283 20.827 8.46242 20.8802 8.66286 20.6528C9.16688 20.0845 8.47722 18.9479 7.56559 18.8493C7.29878 18.8193 7.21717 18.8343 7.17995 18.9329Z" fill="#A70000"/>
<path fill-rule="evenodd" clip-rule="evenodd" d="M92.6058 27.5834C92.4712 28.0626 92.6434 28.7309 92.8618 28.5568C93.0802 28.3827 93.0412 27.6416 92.8017 27.4093C92.6959 27.3147 92.6735 27.3365 92.6058 27.5834Z" fill="#A70000"/>
<path fill-rule="evenodd" clip-rule="evenodd" d="M79.2263 33.1312C79.1343 33.2312 79.1648 33.5236 79.2877 33.6236C79.4491 33.76 79.6487 33.5849 79.6182 33.3235C79.5949 33.1258 79.3487 33.0085 79.2263 33.1312Z" fill="#A70000"/>
<path d="M11.2045 65.0811V69.0965H9.70907V66.5014H0V55.0762H1.59277V65.0811H7.87057V55.0762H9.46423V65.0811H11.2045Z" fill="#A70000"/>
<path d="M13.3447 55.0762H14.9384V63.8895L21.6032 55.0762H23.0829V66.5014H21.5068V57.7036L14.8254 66.5014H13.3456L13.3447 55.0762Z" fill="#A70000"/>
<path d="M37.4615 64.3308C36.4209 65.1907 34.9507 65.6531 33.0509 65.7179V66.9259H31.5537V65.7179C29.6542 65.6422 28.1813 65.1743 27.135 64.3144C26.0887 63.4546 25.5656 62.274 25.5656 60.7728C25.5656 59.2603 26.0887 58.0741 27.135 57.2142C28.1813 56.3544 29.6542 55.8865 31.5537 55.8107V54.6519H33.0509V55.8107C34.9397 55.8871 36.4072 56.3569 37.4535 57.2201C38.4998 58.0834 39.0229 59.2668 39.0229 60.7705C39.0232 62.2851 38.5028 63.4718 37.4615 64.3308ZM28.2776 63.3761C29.0446 64.0016 30.1367 64.3579 31.5537 64.4449V57.1001C30.1155 57.1874 29.0182 57.5411 28.2619 58.1613C27.5055 58.7814 27.1272 59.6519 27.1269 60.7728C27.1269 61.8827 27.5105 62.7505 28.2776 63.3761ZM36.3427 63.3761C37.0997 62.7505 37.478 61.8772 37.4777 60.7564C37.4777 59.6574 37.094 58.795 36.3266 58.1695C35.5592 57.5439 34.4681 57.1874 33.0532 57.1001V64.4449C34.4896 64.3585 35.5861 64.0023 36.3427 63.3761Z" fill="#A70000"/>
<path d="M49.3397 56.1369C50.1768 56.8443 50.5953 57.8181 50.5953 59.0584C50.5953 60.2987 50.1768 61.2725 49.3397 61.98C48.5027 62.6874 47.3544 63.0411 45.895 63.0411H43.1099V66.5014H41.501V55.0762H45.8954C47.3543 55.0762 48.5024 55.4297 49.3397 56.1369ZM48.1824 60.9597C48.7187 60.519 48.9877 59.8853 48.9895 59.0584C48.9913 58.2316 48.7222 57.5978 48.1824 57.1571C47.6443 56.7161 46.8661 56.4957 45.8479 56.496H43.1126V61.6208H45.8479C46.8661 61.6208 47.6443 61.4004 48.1824 60.9597Z" fill="#A70000"/>
<path d="M54.9895 65.8737C54.0972 65.3874 53.3537 64.6619 52.8403 63.7764C52.3195 62.8844 52.0593 61.8887 52.0596 60.7894C52.0599 59.6901 52.3201 58.6945 52.8403 57.8028C53.3538 56.9175 54.0973 56.192 54.9895 55.7055C55.9016 55.1997 56.9265 54.9466 58.0643 54.9463C59.191 54.9463 60.2105 55.1994 61.1229 55.7055C62.0127 56.1899 62.7535 56.9135 63.2641 57.7969C63.7789 58.6838 64.0364 59.682 64.0367 60.7917C64.037 61.9013 63.7795 62.8997 63.2641 63.7869C62.7535 64.6703 62.0127 65.3939 61.1229 65.8782C60.2105 66.3844 59.191 66.6375 58.0643 66.6375C56.9268 66.6357 55.9019 66.3811 54.9895 65.8737ZM60.2938 64.6089C60.9452 64.2368 61.4849 63.6925 61.8552 63.034C62.2363 62.3647 62.4269 61.6166 62.4269 60.7894C62.4269 59.9622 62.2363 59.2142 61.8552 58.5453C61.4847 57.8868 60.9451 57.3425 60.2938 56.9704C59.6337 56.5894 58.8906 56.3989 58.0643 56.3989C57.238 56.3989 56.4895 56.5894 55.8186 56.9704C55.1603 57.3387 54.6145 57.8835 54.2411 58.5453C53.86 59.2145 53.6694 59.9625 53.6694 60.7894C53.6694 61.6162 53.86 62.3644 54.2411 63.034C54.6144 63.6958 55.1602 64.2407 55.8186 64.6089C56.4892 64.9899 57.2377 65.1804 58.0643 65.1804C58.8909 65.1804 59.634 64.9899 60.2938 64.6089Z" fill="#A70000"/>
<path d="M75.396 61.5635C75.7873 62.037 75.9831 62.6431 75.9834 63.3821C75.9834 64.3723 75.6266 65.1393 74.913 65.6831C74.1994 66.2268 73.161 66.4996 71.7979 66.5014H66.6465V55.0762H71.4921C72.7261 55.0762 73.6893 55.3291 74.3816 55.835C75.074 56.3408 75.4202 57.0672 75.4202 58.0141C75.4202 58.6342 75.2673 59.1619 74.9614 59.5972C74.6556 60.0324 74.2236 60.3589 73.6655 60.5765C74.4275 60.7614 75.0043 61.0904 75.396 61.5635ZM68.2402 60.1027H71.3791C72.1626 60.1027 72.7605 59.945 73.1727 59.6294C73.585 59.3139 73.7915 58.8514 73.7924 58.2419C73.7924 57.6326 73.5832 57.1675 73.1646 56.8466C72.7461 56.5256 72.1505 56.3651 71.3777 56.3651H68.2388L68.2402 60.1027ZM74.3574 63.2525C74.3574 62.5997 74.1401 62.1182 73.7054 61.8081C73.2708 61.498 72.6241 61.343 71.7656 61.343H68.2402V65.2111H71.7656C73.4938 65.2111 74.3577 64.5583 74.3574 63.2525Z" fill="#A70000"/>
<path d="M85.9936 63.6449H80.005L78.7656 66.5014H77.1064L82.2094 55.0762H83.8035L88.9226 66.5014H87.2321L85.9936 63.6449ZM85.4299 62.3391L82.9991 56.7406L80.5687 62.3391H85.4299Z" fill="#A70000"/>
<path d="M98.6 55.0771V66.5023H97.0225V63.1725H93.9154C93.7704 63.1745 93.6254 63.1691 93.4809 63.1561L91.2272 66.5023H89.5205L92.0159 62.8788C91.2112 62.606 90.594 62.1514 90.1644 61.5149C89.7348 60.8784 89.5202 60.103 89.5205 59.1889C89.5205 57.8941 89.9311 56.8849 90.7523 56.1614C91.5735 55.4379 92.6815 55.0762 94.0764 55.0762L98.6 55.0771ZM91.8792 61.1239C92.367 61.5758 93.0887 61.8016 94.0441 61.8013H97.0225V56.496H94.141C93.1751 56.496 92.4345 56.7246 91.9191 57.1816C91.4037 57.6387 91.1461 58.3023 91.1464 59.1725C91.1464 60.0221 91.3907 60.6726 91.8792 61.1239Z" fill="#A70000"/>
<path d="M22.3752 70.4591C23.2123 71.1666 23.6308 72.1404 23.6308 73.3807C23.6308 74.621 23.2123 75.5948 22.3752 76.3022C21.5382 77.0097 20.3898 77.3634 18.9301 77.3634H16.145V80.8237H14.5352V69.3984H18.9296C20.3897 69.3984 21.5382 69.752 22.3752 70.4591ZM21.2161 75.282C21.7524 74.8413 22.0214 74.2075 22.0232 73.3807C22.025 72.5538 21.756 71.9201 21.2161 71.4794C20.678 71.0383 19.8998 70.818 18.8816 70.8183H16.1463V75.9431H18.8816C19.9013 75.9431 20.6795 75.7227 21.2161 75.282Z" fill="#A70000"/>
<path d="M28.0265 80.1945C27.1343 79.7082 26.391 78.9827 25.8777 78.0972C25.3566 77.2052 25.0963 76.2095 25.0966 75.1102C25.0969 74.0109 25.3572 73.0153 25.8777 72.1236C26.3911 71.2383 27.1344 70.5128 28.0265 70.0263C28.9386 69.5205 29.9635 69.2674 31.1013 69.2671C32.2283 69.2671 33.2478 69.5202 34.1599 70.0263C35.0497 70.5107 35.7905 71.2343 36.3011 72.1177C36.8162 73.0046 37.0737 74.0028 37.0737 75.1125C37.0737 76.2221 36.8157 77.2198 36.2997 78.1054C35.7892 78.9888 35.0483 79.7125 34.1586 80.1968C33.2465 80.703 32.2269 80.956 31.0999 80.956C29.9628 80.9557 28.9383 80.7019 28.0265 80.1945ZM33.3308 78.9297C33.9823 78.5576 34.5221 78.0134 34.8926 77.3548C35.2735 76.6855 35.4639 75.9374 35.4639 75.1102C35.4639 74.283 35.2735 73.535 34.8926 72.8661C34.522 72.2076 33.9823 71.6633 33.3308 71.2912C32.6707 70.9102 31.9276 70.7197 31.1013 70.7197C30.275 70.7197 29.5266 70.9102 28.8561 71.2912C28.1977 71.6595 27.652 72.2043 27.2785 72.8661C26.8974 73.5353 26.7068 74.2834 26.7068 75.1102C26.7068 75.9371 26.8974 76.6852 27.2785 77.3548C27.6518 78.0166 28.1976 78.5615 28.8561 78.9297C29.5269 79.3107 30.2754 79.5012 31.1017 79.5012C31.928 79.5012 32.671 79.3107 33.3308 78.9297Z" fill="#A70000"/>
<path d="M41.6684 80.1951C40.782 79.7091 40.0442 78.9857 39.5353 78.1038C39.0205 77.2172 38.763 76.2188 38.7627 75.1086C38.7624 73.9983 39.0199 73.0001 39.5353 72.1138C40.0459 71.2304 40.7867 70.5068 41.6765 70.0224C42.5886 69.5166 43.6081 69.2635 44.7351 69.2632C45.6149 69.2632 46.4198 69.4129 47.1498 69.7124C47.8661 70.002 48.5057 70.4574 49.0175 71.0422L47.9709 72.0706C47.1231 71.1677 46.066 70.7161 44.7997 70.7158C43.9627 70.7158 43.206 70.9063 42.5298 71.2873C41.868 71.6537 41.3192 72.1988 40.9442 72.8622C40.5631 73.5314 40.3725 74.2794 40.3725 75.1063C40.3725 75.9331 40.5631 76.6813 40.9442 77.3509C41.3191 78.0143 41.8679 78.5594 42.5298 78.9258C43.206 79.3068 43.9627 79.4973 44.7997 79.4973C46.0553 79.4973 47.1123 79.0402 47.9709 78.126L49.0175 79.1545C48.5027 79.7416 47.8606 80.1998 47.1418 80.4929C46.407 80.796 45.5998 80.9476 44.7203 80.9476C43.5927 80.9533 42.5754 80.7025 41.6684 80.1951Z" fill="#A70000"/>
<path d="M52.9858 80.1951C52.0996 79.7089 51.362 78.9856 50.8531 78.1038C50.3378 77.2172 50.0801 76.2188 50.0801 75.1086C50.0801 73.9983 50.3378 73.0001 50.8531 72.1138C51.3635 71.2304 52.1043 70.5068 52.9939 70.0224C53.906 69.5166 54.9255 69.2635 56.0525 69.2632C56.9329 69.2632 57.7378 69.4129 58.4672 69.7124C59.1837 70.0027 59.8232 70.4591 60.3344 71.0449L59.2878 72.0733C58.4397 71.1704 57.3827 70.7188 56.1166 70.7185C55.2796 70.7185 54.523 70.909 53.8468 71.29C53.185 71.6565 52.6361 72.2016 52.2612 72.8649C51.88 73.5341 51.6894 74.2822 51.6894 75.109C51.6894 75.9359 51.8806 76.6847 52.263 77.3554C52.6378 78.0189 53.1866 78.564 53.8486 78.9303C54.5254 79.311 55.2823 79.5014 56.1193 79.5014C57.3749 79.5014 58.4319 79.0443 59.2905 78.1301L60.3371 79.1585C59.8223 79.7457 59.1803 80.2039 58.4614 80.497C57.7263 80.8001 56.9191 80.9517 56.04 80.9517C54.9108 80.9547 53.8928 80.7025 52.9858 80.1951Z" fill="#A70000"/>
<path d="M62.5563 69.3984H64.15V78.2117L70.8143 69.3984H72.2941V80.8237H70.7166V72.0258L64.0352 80.8237H62.5554L62.5563 69.3984Z" fill="#A70000"/>
<path d="M84.064 69.3993V80.8246H82.4869V77.4948H79.3794C79.2344 77.4968 79.0894 77.4913 78.9449 77.4784L76.6912 80.8246H74.9845L77.4799 77.2011C76.6749 76.9283 76.0577 76.4736 75.6284 75.8371C75.1991 75.2006 74.9845 74.4253 74.9845 73.5112C74.9845 72.2163 75.3951 71.2072 76.2163 70.4837C77.0375 69.7602 78.1455 69.3984 79.5404 69.3984L84.064 69.3993ZM77.3432 75.4461C77.831 75.8981 78.5527 76.1239 79.5081 76.1236H82.4869V70.8183H79.6054C78.6395 70.8183 77.8989 71.0468 77.3835 71.5039C76.8681 71.961 76.6112 72.6249 76.6127 73.4957C76.6127 74.3447 76.8562 74.9948 77.3432 75.4461Z" fill="#A70000"/>
</svg>
