<svg width="48" height="21" viewBox="0 0 48 21" fill="none" xmlns="http://www.w3.org/2000/svg">
<path d="M41.9931 15.6754C40.9481 15.6754 40.0311 15.4267 39.2424 14.9293C38.4586 14.4319 37.8456 13.7361 37.4035 12.8418C36.9664 11.9475 36.7479 10.9025 36.7479 9.70672C36.7479 8.50092 36.9664 7.44836 37.4035 6.54904C37.8456 5.64972 38.4586 4.95136 39.2424 4.45397C40.0311 3.95658 40.9481 3.70789 41.9931 3.70789C43.0381 3.70789 43.9525 3.95658 44.7363 4.45397C45.5251 4.95136 46.138 5.64972 46.5751 6.54904C47.0172 7.44836 47.2383 8.50092 47.2383 9.70672C47.2383 10.9025 47.0172 11.9475 46.5751 12.8418C46.138 13.7361 45.5251 14.4319 44.7363 14.9293C43.9525 15.4267 43.0381 15.6754 41.9931 15.6754ZM41.9931 14.0777C42.7869 14.0777 43.44 13.8743 43.9525 13.4673C44.465 13.0603 44.8443 12.5253 45.0905 11.8621C45.3366 11.1989 45.4597 10.4804 45.4597 9.70672C45.4597 8.933 45.3366 8.21204 45.0905 7.54382C44.8443 6.87561 44.465 6.33552 43.9525 5.92353C43.44 5.51155 42.7869 5.30556 41.9931 5.30556C41.1993 5.30556 40.5461 5.51155 40.0337 5.92353C39.5212 6.33552 39.1419 6.87561 38.8957 7.54382C38.6495 8.21204 38.5264 8.933 38.5264 9.70672C38.5264 10.4804 38.6495 11.1989 38.8957 11.8621C39.1419 12.5253 39.5212 13.0603 40.0337 13.4673C40.5461 13.8743 41.1993 14.0777 41.9931 14.0777Z" fill="#FFFAF0"/>
<path d="M29.0305 20.0164C28.1714 20.0164 27.4328 19.9059 26.8148 19.6848C26.1969 19.4688 25.6819 19.1824 25.2699 18.8257C24.863 18.474 24.5389 18.0972 24.2977 17.6952L25.7146 16.7005C25.8753 16.9115 26.0788 17.1526 26.325 17.4239C26.5712 17.7003 26.9078 17.9389 27.3348 18.1399C27.7669 18.3459 28.3321 18.4489 29.0305 18.4489C29.965 18.4489 30.7362 18.2228 31.3441 17.7706C31.952 17.3184 32.256 16.61 32.256 15.6454V13.2941H32.1053C31.9746 13.5051 31.7888 13.7664 31.5476 14.0779C31.3115 14.3843 30.9698 14.6581 30.5227 14.8993C30.0805 15.1354 29.4827 15.2535 28.729 15.2535C27.7946 15.2535 26.9555 15.0324 26.2119 14.5903C25.4734 14.1482 24.8881 13.5051 24.456 12.661C24.029 11.817 23.8154 10.7921 23.8154 9.58626C23.8154 8.40056 24.0239 7.3681 24.4409 6.48887C24.8579 5.60462 25.4382 4.92134 26.1818 4.43902C26.9254 3.95168 27.7845 3.70801 28.7592 3.70801C29.5128 3.70801 30.1107 3.83361 30.5528 4.08482C31 4.331 31.3416 4.61235 31.5777 4.92888C31.8189 5.24037 32.0048 5.4966 32.1354 5.69757H32.3163V3.85873H34.0346V15.766C34.0346 16.7607 33.8085 17.5696 33.3563 18.1926C32.9091 18.8206 32.3062 19.2804 31.5476 19.5718C30.794 19.8682 29.9549 20.0164 29.0305 20.0164ZM28.9702 13.6558C29.6836 13.6558 30.2865 13.4925 30.7789 13.166C31.2713 12.8394 31.6456 12.3696 31.9018 11.7567C32.158 11.1437 32.2861 10.4102 32.2861 9.55612C32.2861 8.72211 32.1605 7.98607 31.9093 7.348C31.6581 6.70994 31.2863 6.21003 30.794 5.8483C30.3016 5.48656 29.6937 5.30569 28.9702 5.30569C28.2166 5.30569 27.5886 5.4966 27.0862 5.87844C26.5888 6.26028 26.2145 6.77274 25.9633 7.41583C25.7171 8.05892 25.594 8.77235 25.594 9.55612C25.594 10.36 25.7196 11.0709 25.9708 11.6889C26.227 12.3018 26.6038 12.7841 27.1012 13.1358C27.6036 13.4825 28.2266 13.6558 28.9702 13.6558Z" fill="#FFFAF0"/>
<path d="M16.3985 15.6755C15.3535 15.6755 14.4366 15.4268 13.6478 14.9294C12.864 14.4321 12.2511 13.7362 11.809 12.8419C11.3719 11.9476 11.1533 10.9026 11.1533 9.70684C11.1533 8.50105 11.3719 7.44849 11.809 6.54916C12.2511 5.64984 12.864 4.95148 13.6478 4.45409C14.4366 3.9567 15.3535 3.70801 16.3985 3.70801C17.4436 3.70801 18.358 3.9567 19.1417 4.45409C19.9305 4.95148 20.5435 5.64984 20.9806 6.54916C21.4227 7.44849 21.6437 8.50105 21.6437 9.70684C21.6437 10.9026 21.4227 11.9476 20.9806 12.8419C20.5435 13.7362 19.9305 14.4321 19.1417 14.9294C18.358 15.4268 17.4436 15.6755 16.3985 15.6755ZM16.3985 14.0779C17.1923 14.0779 17.8455 13.8744 18.358 13.4674C18.8704 13.0605 19.2497 12.5254 19.4959 11.8622C19.7421 11.199 19.8652 10.4806 19.8652 9.70684C19.8652 8.93312 19.7421 8.21216 19.4959 7.54395C19.2497 6.87573 18.8704 6.33564 18.358 5.92366C17.8455 5.51168 17.1923 5.30569 16.3985 5.30569C15.6047 5.30569 14.9516 5.51168 14.4391 5.92366C13.9267 6.33564 13.5473 6.87573 13.3011 7.54395C13.055 8.21216 12.9319 8.93312 12.9319 9.70684C12.9319 10.4806 13.055 11.199 13.3011 11.8622C13.5473 12.5254 13.9267 13.0605 14.4391 13.4674C14.9516 13.8744 15.6047 14.0779 16.3985 14.0779Z" fill="#FFFAF0"/>
<path d="M0 15.4342V0H1.86898V13.7762H9.04347V15.4342H0Z" fill="#FFFAF0"/>
</svg>
