<svg width="245" height="33" viewBox="0 0 245 33" fill="none" xmlns="http://www.w3.org/2000/svg">
<path d="M10.9295 18.9534C11.0352 19.0261 11.0916 19.0696 11.1527 19.1067C12.8095 20.113 14.8515 19.9408 16.442 18.6889C17.9387 17.5112 19.4524 16.3552 20.9587 15.1894C21.4421 14.8153 21.9247 14.4397 22.4189 14.0561C22.3648 14.0061 22.3383 13.9734 22.3049 13.9524C20.7132 12.958 18.7614 12.9833 17.2462 14.0925C15.8022 15.1495 14.4031 16.2676 12.9855 17.3605C12.3107 17.8805 11.6385 18.404 10.9295 18.9534ZM10.9231 31.9462C14.3438 32.3866 17.5583 32.0108 20.6122 30.5586C22.1942 29.8064 23.6052 28.7925 25.0009 27.7506C26.6099 26.5502 27.9294 25.1033 28.9218 23.3647C28.957 23.3027 28.9909 23.2394 28.9909 23.1317C28.9229 23.1771 28.8523 23.2185 28.7881 23.2678C26.8644 24.7473 24.952 26.241 23.0157 27.7037C20.6967 29.4552 18.0802 30.4921 15.1781 30.8035C12.1975 31.1235 9.35552 30.6377 6.65861 29.3363C5.3339 28.6971 4.36931 27.6539 3.49243 26.5192C2.57243 25.3292 1.82872 24.0375 1.26132 22.6471C1.23411 22.5801 1.21326 22.5104 1.19329 22.4408C1.18837 22.4236 1.19937 22.4018 1.21095 22.3372C1.63245 22.6471 2.03947 22.9426 2.44274 23.2432C3.81984 24.2703 5.19349 25.302 6.57235 26.3265C7.968 27.3636 9.57207 27.9089 11.2668 28.1852C15.2334 28.8321 18.7689 27.8303 21.9158 25.3774C24.3547 23.476 26.8082 21.5927 29.2549 19.7011C29.3285 19.6442 29.3986 19.5833 29.5072 19.4939C29.0199 19.1144 28.5492 18.7475 28.0629 18.3687C27.2261 19.0132 26.4045 19.6498 25.5793 20.2817C23.6779 21.7375 21.8094 23.2394 19.8615 24.6312C18.1031 25.8874 16.0862 26.5048 13.911 26.5789C11.0693 26.6753 8.55335 25.8029 6.32165 24.079C4.40984 22.6023 2.49948 21.1237 0.581591 19.655C0.400079 19.5161 0.303099 19.3686 0.283124 19.1465C0.193092 18.1499 0.0952431 17.1537 0 16.1573C0.0367655 16.1404 0.0738206 16.1235 0.110586 16.1065C0.214514 16.1786 0.322205 16.2461 0.42208 16.323C2.92764 18.2573 5.43956 20.1835 7.93586 22.129C11.2129 24.684 15.6381 24.732 18.9331 22.2121C21.2079 20.4723 23.4673 18.7126 25.7332 16.9614C25.8066 16.9048 25.8765 16.8436 25.9751 16.7626C25.5148 16.4063 25.0773 16.056 24.6215 15.7304C24.5634 15.6887 24.3886 15.7468 24.3063 15.8088C23.5095 16.4123 22.7211 17.0268 21.9297 17.6376C20.5447 18.7063 19.1664 19.7838 17.7725 20.8407C15.2311 22.7671 11.7534 22.7729 9.21367 20.839C6.6285 18.8709 4.06013 16.8809 1.48944 14.8945C0.655121 14.2496 0.338417 13.217 0.6557 12.1555C2.32085 6.58754 5.90853 2.79153 11.4332 0.883205C14.989 -0.345182 18.588 -0.262766 22.1546 0.94723C22.2224 0.969928 22.2884 0.998355 22.2754 0.993467C21.4161 0.955564 20.481 0.86856 19.5474 0.881482C16.5043 0.923411 13.6724 1.72337 11.0989 3.34859C9.43225 4.40125 7.81341 5.52254 6.43744 6.94789C5.6535 7.75965 4.99694 8.66673 4.43531 9.64214C4.40172 9.70072 4.37684 9.76446 4.39074 9.86611C4.64347 9.67429 4.89676 9.48336 5.14861 9.2904C7.04248 7.84091 8.90565 6.35037 10.8374 4.95284C12.8963 3.46288 15.2273 2.58479 17.7589 2.24914C20.6726 1.86264 23.4749 2.25775 26.1761 3.40889C27.7359 4.07363 28.8923 5.19807 29.8949 6.51259C30.8329 7.74212 31.5906 9.0716 32.1586 10.507C32.1764 10.5524 32.1918 10.5986 32.1669 10.6842C31.8065 10.4151 31.446 10.1461 31.0856 9.87731C29.6748 8.82465 28.2622 7.77399 26.8531 6.71934C25.4169 5.64428 23.7676 5.07747 22.0192 4.80181C18.1358 4.18992 14.655 5.15097 11.5626 7.54027C9.07444 9.46324 6.58594 11.3859 4.09776 13.3095C4.02567 13.3652 3.95737 13.4264 3.85662 13.5108C4.31605 13.8663 4.75289 14.2146 5.20537 14.5413C5.25891 14.5801 5.42017 14.5304 5.49427 14.4739C6.64559 13.5966 7.79024 12.7108 8.9375 11.8284C10.3404 10.7493 11.7146 9.63066 13.1531 8.60068C17.3924 5.56589 22.8166 5.68246 26.9584 8.86083C28.9162 10.3631 30.8692 11.8721 32.8182 13.3859C32.9274 13.4709 33.0358 13.6213 33.0501 13.7517C33.1661 14.7863 33.259 15.8231 33.3589 16.8594C33.3198 16.8738 33.2807 16.8881 33.2416 16.9028C32.9068 16.6487 32.5703 16.3971 32.2377 16.1401C29.9225 14.3501 27.6161 12.5494 25.2916 10.7717C23.8128 9.641 22.1316 9.02019 20.2575 8.94525C18.0252 8.85594 16.0483 9.5313 14.2943 10.8915C12.13 12.5695 9.95824 14.2378 7.79024 15.911C7.66807 16.0055 7.55054 16.1057 7.38929 16.2372C7.86551 16.6056 8.30987 16.9591 8.77047 17.2907C8.81765 17.3246 8.97745 17.2491 9.05676 17.1882C10.4709 16.106 11.8793 15.0163 13.2915 13.9317C14.1753 13.2532 15.0325 12.5354 15.9554 11.9134C18.5217 10.1846 21.8431 10.3505 24.2826 12.2517C26.73 14.1592 29.1962 16.0428 31.6532 17.938C32.7518 18.7856 33.0707 19.6838 32.6591 20.9953C30.7773 26.9917 26.7769 30.8498 20.666 32.4781C17.5447 33.31 14.4199 33.1196 11.3513 32.1045C11.234 32.0657 11.1194 32.019 10.9231 31.9462Z" fill="#A70000"/>
<path d="M48.3115 11.7058V0.452681H50.4834L55.3132 8.39417H54.1625L58.9113 0.452681H61.0831L61.0992 11.7058H58.6358L58.6195 4.19836H59.0895L55.2808 10.5162H54.1138L50.2241 4.19836H50.7752V11.7058H48.3115ZM63.9176 11.7058V0.452681H66.527V7.78329L71.9404 0.452681H74.4038V11.7058H71.8108V4.39127L66.3973 11.7058H63.9176ZM85.0084 0.452681H87.634V11.7058H85.0084V0.452681ZM79.8544 11.7058H77.2288V0.452681H79.8544V11.7058ZM85.2029 7.09202H79.6599V4.88963H85.2029V7.09202ZM90.4765 11.7058V0.452681H98.483L98.4667 2.57471H92.4701L93.0698 1.9799L93.0859 11.7058H90.4765ZM104.358 11.8987C103.461 11.8987 102.629 11.754 101.862 11.4647C101.106 11.1753 100.447 10.768 99.8847 10.2429C99.3337 9.71774 98.9014 9.10151 98.5881 8.39417C98.2856 7.68684 98.1343 6.91519 98.1343 6.07925C98.1343 5.2433 98.2856 4.47164 98.5881 3.76431C98.9014 3.05697 99.3391 2.44073 99.901 1.91559C100.463 1.39045 101.122 0.983187 101.878 0.693814C102.635 0.404463 103.456 0.259766 104.342 0.259766C105.239 0.259766 106.06 0.404463 106.805 0.693814C107.562 0.983187 108.215 1.39045 108.766 1.91559C109.328 2.44073 109.766 3.05697 110.079 3.76431C110.393 4.46094 110.549 5.23258 110.549 6.07925C110.549 6.91519 110.393 7.6922 110.079 8.41024C109.766 9.11759 109.328 9.73383 108.766 10.259C108.215 10.7734 107.562 11.1753 106.805 11.4647C106.06 11.754 105.244 11.8987 104.358 11.8987ZM104.342 9.68023C104.85 9.68023 105.314 9.5945 105.736 9.42303C106.168 9.25154 106.546 9.00505 106.87 8.68354C107.194 8.36202 107.443 7.98155 107.616 7.54214C107.799 7.10275 107.891 6.6151 107.891 6.07925C107.891 5.54338 107.799 5.05575 107.616 4.61634C107.443 4.17693 107.194 3.79646 106.87 3.47496C106.557 3.15343 106.184 2.90694 105.752 2.73545C105.32 2.56398 104.85 2.47825 104.342 2.47825C103.834 2.47825 103.364 2.56398 102.932 2.73545C102.51 2.90694 102.138 3.15343 101.813 3.47496C101.489 3.79646 101.235 4.17693 101.052 4.61634C100.879 5.05575 100.792 5.54338 100.792 6.07925C100.792 6.60439 100.879 7.09202 101.052 7.54214C101.235 7.98155 101.484 8.36202 101.797 8.68354C102.121 9.00505 102.5 9.25154 102.932 9.42303C103.364 9.5945 103.834 9.68023 104.342 9.68023ZM117.937 11.8987C117.061 11.8987 116.246 11.7594 115.489 11.4807C114.744 11.1914 114.095 10.7841 113.544 10.259C112.993 9.73383 112.561 9.11759 112.248 8.41024C111.945 7.7029 111.794 6.9259 111.794 6.07925C111.794 5.23258 111.945 4.45558 112.248 3.74824C112.561 3.04091 112.993 2.42465 113.544 1.8995C114.106 1.37436 114.76 0.972463 115.506 0.693814C116.251 0.404463 117.067 0.259766 117.953 0.259766C118.936 0.259766 119.822 0.431253 120.611 0.774207C121.41 1.10644 122.08 1.59943 122.621 2.25318L120.935 3.79646C120.546 3.35705 120.114 3.03018 119.638 2.81584C119.163 2.59077 118.644 2.47825 118.083 2.47825C117.553 2.47825 117.067 2.56398 116.624 2.73545C116.181 2.90694 115.797 3.15343 115.473 3.47496C115.149 3.79646 114.895 4.17693 114.711 4.61634C114.539 5.05575 114.452 5.54338 114.452 6.07925C114.452 6.6151 114.539 7.10275 114.711 7.54214C114.895 7.98155 115.149 8.36202 115.473 8.68354C115.797 9.00505 116.181 9.25154 116.624 9.42303C117.067 9.5945 117.553 9.68023 118.083 9.68023C118.644 9.68023 119.163 9.57307 119.638 9.35872C120.114 9.13366 120.546 8.79607 120.935 8.34593L122.621 9.88923C122.08 10.543 121.41 11.0413 120.611 11.3843C119.822 11.7272 118.931 11.8987 117.937 11.8987ZM124.499 9.58377C125.126 9.76598 125.65 9.81956 126.072 9.74453C126.504 9.6588 126.887 9.35872 127.222 8.84428L127.773 8.02443L128.016 7.75114L131.777 0.452681H134.354L129.524 9.35872C129.091 10.1625 128.578 10.7788 127.984 11.2074C127.4 11.6361 126.758 11.8773 126.055 11.9309C125.353 11.9952 124.624 11.8719 123.867 11.5611L124.499 9.58377ZM127.968 9.92138L122.846 0.452681H125.65L129.41 8.00834L127.968 9.92138ZM135.601 11.7058V0.452681H145.942V11.7058H143.332V1.9799L143.932 2.57471H137.611L138.211 1.9799V11.7058H135.601ZM148.754 11.7058V0.452681H153.665C154.681 0.452681 155.556 0.618806 156.291 0.951035C157.025 1.27256 157.592 1.73876 157.992 2.34964C158.392 2.96052 158.592 3.6893 158.592 4.53595C158.592 5.37189 158.392 6.09532 157.992 6.70619C157.592 7.31709 157.025 7.78863 156.291 8.12088C155.556 8.44239 154.681 8.60315 153.665 8.60315H150.213L151.38 7.42961V11.7058H148.754ZM151.38 7.71899L150.213 6.48115H153.519C154.329 6.48115 154.934 6.30966 155.334 5.96671C155.734 5.62375 155.934 5.14685 155.934 4.53595C155.934 3.91435 155.734 3.43208 155.334 3.08913C154.934 2.74617 154.329 2.57471 153.519 2.57471H150.213L151.38 1.33687V7.71899ZM158.474 11.7058L163.531 0.452681H166.124L171.197 11.7058H168.441L164.292 1.77091H165.33L161.164 11.7058H158.474ZM161.002 9.29442L161.699 7.31709H167.534L168.247 9.29442H161.002ZM172.701 11.7058V0.452681H177.985C179.303 0.452681 180.33 0.704539 181.064 1.20826C181.799 1.71195 182.166 2.43001 182.166 3.36241C182.166 4.28409 181.821 5.00215 181.129 5.51659C180.438 6.02029 179.519 6.27214 178.374 6.27214L178.682 5.59696C179.957 5.59696 180.946 5.84882 181.648 6.35254C182.35 6.85623 182.701 7.58502 182.701 8.53885C182.701 9.52483 182.323 10.3018 181.567 10.8699C180.821 11.4271 179.73 11.7058 178.293 11.7058H172.701ZM175.311 9.77669H178.196C178.801 9.77669 179.26 9.6588 179.573 9.42303C179.887 9.18724 180.043 8.82285 180.043 8.32986C180.043 7.8583 179.887 7.50998 179.573 7.28494C179.26 7.04915 178.801 6.93126 178.196 6.93126H175.311V9.77669ZM175.311 5.11469H177.758C178.331 5.11469 178.763 5.00215 179.055 4.7771C179.346 4.54131 179.492 4.19836 179.492 3.74824C179.492 3.29811 179.346 2.96052 179.055 2.73545C178.763 2.49968 178.331 2.38179 177.758 2.38179H175.311V5.11469ZM184.891 11.8826C184.697 11.8826 184.492 11.8666 184.275 11.8344C184.07 11.8023 183.843 11.7594 183.595 11.7058L183.757 9.5034C183.908 9.54628 184.065 9.56771 184.227 9.56771C184.67 9.56771 185.015 9.39088 185.264 9.0372C185.513 8.67282 185.691 8.15304 185.799 7.47783C185.907 6.80265 185.977 5.98279 186.01 5.01824L186.172 0.452681H194.891V11.7058H192.298V1.9799L192.898 2.57471H187.89L188.424 1.94774L188.327 4.92178C188.295 6.02565 188.219 7.00629 188.1 7.86366C187.982 8.72104 187.798 9.44982 187.549 10.05C187.301 10.6501 186.96 11.1056 186.528 11.4164C186.096 11.7272 185.55 11.8826 184.891 11.8826ZM200.14 4.98608H205.602V7.01163H200.14V4.98608ZM200.334 9.61592H206.509V11.7058H197.725V0.452681H206.299V2.54255H200.334V9.61592ZM216.41 0.452681H219.035V11.7058H216.41V0.452681ZM211.256 11.7058H208.63V0.452681H211.256V11.7058ZM216.604 7.09202H211.061V4.88963H216.604V7.09202ZM221.878 11.7058V0.452681H224.487V7.78329L229.9 0.452681H232.364V11.7058H229.772V4.39127L224.357 11.7058H221.878ZM241.655 11.7058V8.15304L242.304 8.71567H239.193C238.209 8.71567 237.36 8.55493 236.648 8.23341C235.934 7.91188 235.389 7.44568 235.011 6.8348C234.633 6.22393 234.444 5.49514 234.444 4.64849C234.444 3.76967 234.644 3.01946 235.044 2.39786C235.454 1.76555 236.027 1.28326 236.761 0.951035C237.495 0.618806 238.361 0.452681 239.353 0.452681H244.25V11.7058H241.655ZM234.475 11.7058L237.295 7.67075H239.955L237.247 11.7058H234.475ZM241.655 7.31709V1.8995L242.304 2.57471H239.419C238.674 2.57471 238.101 2.74617 237.701 3.08913C237.313 3.43208 237.117 3.94116 237.117 4.61634C237.117 5.27009 237.306 5.77379 237.686 6.12747C238.064 6.48115 238.62 6.65797 239.353 6.65797H242.304L241.655 7.31709Z" fill="#A70000"/>
<path d="M47.1083 29.5397L51.541 19.9215H52.5524L56.9853 29.5397H55.9047L51.832 20.5124H52.2476L48.175 29.5397H47.1083ZM48.8538 26.9703L49.1584 26.1457H54.7965L55.1014 26.9703H48.8538ZM62.9472 29.6219C62.2175 29.6219 61.5433 29.5028 60.9245 29.2647C60.3059 29.0174 59.7703 28.6739 59.3176 28.2342C58.8651 27.7946 58.5097 27.2769 58.2511 26.6817C58.0016 26.0862 57.877 25.4359 57.877 24.7306C57.877 24.0253 58.0016 23.3749 58.2511 22.7794C58.5097 22.184 58.8651 21.6665 59.3176 21.2267C59.7794 20.7872 60.3196 20.4482 60.9384 20.21C61.5572 19.9626 62.2313 19.839 62.9609 19.839C63.6628 19.839 64.3231 19.9581 64.9419 20.1963C65.5607 20.4252 66.0824 20.7734 66.5073 21.2405L65.8562 21.8864C65.459 21.4832 65.0205 21.1946 64.5402 21.0206C64.0599 20.8376 63.5427 20.7458 62.9887 20.7458C62.4068 20.7458 61.8666 20.8466 61.3679 21.0482C60.8691 21.2405 60.4351 21.5198 60.0658 21.8864C59.6963 22.2436 59.4053 22.6649 59.193 23.1505C58.9898 23.6267 58.8881 24.1534 58.8881 24.7306C58.8881 25.3075 58.9898 25.8388 59.193 26.3244C59.4053 26.8008 59.6963 27.222 60.0658 27.5886C60.4351 27.9456 60.8691 28.2251 61.3679 28.4267C61.8666 28.619 62.4068 28.7151 62.9887 28.7151C63.5427 28.7151 64.0599 28.6235 64.5402 28.4403C65.0205 28.2572 65.459 27.9641 65.8562 27.561L66.5073 28.2068C66.0824 28.6739 65.5607 29.0267 64.9419 29.2647C64.3231 29.5028 63.6583 29.6219 62.9472 29.6219ZM70.428 29.5397V20.526L70.7051 20.8008H67.0201V19.9215H74.8471V20.8008H71.176L71.4392 20.526V29.5397H70.428ZM76.6463 29.5397V19.9215H80.2757C81.0977 19.9215 81.804 20.0543 82.3952 20.3199C82.9862 20.5764 83.4387 20.9519 83.7526 21.4466C84.0759 21.932 84.2375 22.523 84.2375 23.2192C84.2375 23.8969 84.0759 24.4831 83.7526 24.9778C83.4387 25.4634 82.9862 25.8388 82.3952 26.1045C81.804 26.3701 81.0977 26.5029 80.2757 26.5029H77.2143L77.6714 26.0221V29.5397H76.6463ZM77.6714 26.1045L77.2143 25.6099H80.2479C81.2178 25.6099 81.9519 25.4038 82.4506 24.9916C82.9584 24.5701 83.2125 23.9794 83.2125 23.2192C83.2125 22.4497 82.9584 21.8543 82.4506 21.4328C81.9519 21.0116 81.2178 20.8008 80.2479 20.8008H77.2143L77.6714 20.3199V26.1045ZM84.4186 29.5397L88.8515 19.9215H89.8626L94.2955 29.5397H93.2149L89.1422 20.5124H89.5578L85.4853 29.5397H84.4186ZM86.164 26.9703L86.4688 26.1457H92.1067L92.4116 26.9703H86.164ZM94.6269 19.9215H95.8043L98.5608 23.7274L101.304 19.9215H102.509L99.1981 24.5383L102.772 29.5397H101.567L98.5608 25.4038L95.5548 29.5397H94.3774L97.9375 24.5794L94.6269 19.9215ZM102.844 29.5397L107.276 19.9215H108.288L112.721 29.5397H111.64L107.567 20.5124H107.983L103.91 29.5397H102.844ZM104.589 26.9703L104.894 26.1457H110.532L110.837 26.9703H104.589ZM121.671 19.9215H122.683V29.5397H121.671V19.9215ZM115.604 29.5397H114.579V19.9215H115.604V29.5397ZM121.768 25.1014H115.493V24.2083H121.768V25.1014ZM130.195 29.6219C129.465 29.6219 128.791 29.5028 128.172 29.2647C127.554 29.0174 127.018 28.6739 126.565 28.2342C126.113 27.7946 125.757 27.2769 125.499 26.6817C125.249 26.0862 125.125 25.4359 125.125 24.7306C125.125 24.0253 125.249 23.3749 125.499 22.7794C125.757 22.184 126.113 21.6665 126.565 21.2267C127.027 20.7872 127.567 20.4482 128.186 20.21C128.805 19.9626 129.479 19.839 130.209 19.839C130.911 19.839 131.571 19.9581 132.19 20.1963C132.808 20.4252 133.33 20.7734 133.755 21.2405L133.104 21.8864C132.707 21.4832 132.268 21.1946 131.788 21.0206C131.308 20.8376 130.79 20.7458 130.236 20.7458C129.654 20.7458 129.114 20.8466 128.616 21.0482C128.117 21.2405 127.683 21.5198 127.314 21.8864C126.944 22.2436 126.653 22.6649 126.441 23.1505C126.237 23.6267 126.136 24.1534 126.136 24.7306C126.136 25.3075 126.237 25.8388 126.441 26.3244C126.653 26.8008 126.944 27.222 127.314 27.5886C127.683 27.9456 128.117 28.2251 128.616 28.4267C129.114 28.619 129.654 28.7151 130.236 28.7151C130.79 28.7151 131.308 28.6235 131.788 28.4403C132.268 28.2572 132.707 27.9641 133.104 27.561L133.755 28.2068C133.33 28.6739 132.808 29.0267 132.19 29.2647C131.571 29.5028 130.906 29.6219 130.195 29.6219ZM142.507 29.5397L138.781 24.7444L139.612 24.2497L143.685 29.5397H142.507ZM135.872 29.5397V19.9215H136.869V29.5397H135.872ZM136.565 25.129V24.2359H139.598V25.129H136.565ZM139.695 24.8404L138.753 24.6757L142.369 19.9215H143.477L139.695 24.8404ZM149.5 29.6219C148.77 29.6219 148.091 29.5028 147.463 29.2647C146.844 29.0174 146.304 28.6739 145.842 28.2342C145.39 27.7854 145.034 27.2679 144.776 26.6817C144.527 26.0862 144.402 25.4359 144.402 24.7306C144.402 24.0253 144.527 23.3794 144.776 22.7932C145.034 22.1978 145.39 21.6803 145.842 21.2405C146.304 20.7917 146.844 20.4482 147.463 20.21C148.082 19.9626 148.761 19.839 149.5 19.839C150.229 19.839 150.903 19.9626 151.522 20.21C152.141 20.4482 152.677 20.7872 153.129 21.2267C153.591 21.6665 153.946 22.184 154.196 22.7794C154.454 23.3749 154.583 24.0253 154.583 24.7306C154.583 25.4359 154.454 26.0862 154.196 26.6817C153.946 27.2769 153.591 27.7946 153.129 28.2342C152.677 28.6739 152.141 29.0174 151.522 29.2647C150.903 29.5028 150.229 29.6219 149.5 29.6219ZM149.5 28.7151C150.081 28.7151 150.617 28.619 151.107 28.4267C151.605 28.2251 152.035 27.9456 152.395 27.5886C152.764 27.222 153.05 26.8008 153.254 26.3244C153.457 25.8388 153.558 25.3075 153.558 24.7306C153.558 24.1534 153.457 23.6267 153.254 23.1505C153.05 22.6649 152.764 22.2436 152.395 21.8864C152.035 21.5198 151.605 21.2405 151.107 21.0482C150.617 20.8466 150.081 20.7458 149.5 20.7458C148.918 20.7458 148.378 20.8466 147.879 21.0482C147.38 21.2405 146.946 21.5198 146.577 21.8864C146.217 22.2436 145.93 22.6649 145.718 23.1505C145.515 23.6267 145.413 24.1534 145.413 24.7306C145.413 25.2985 145.515 25.8252 145.718 26.3106C145.93 26.796 146.217 27.222 146.577 27.5886C146.946 27.9456 147.38 28.2251 147.879 28.4267C148.378 28.619 148.918 28.7151 149.5 28.7151ZM157.03 29.5397V19.9215H158.041V27.8907L164.247 19.9215H165.175V29.5397H164.164V21.584L157.958 29.5397H157.03ZM161.075 19.2207C160.382 19.2207 159.833 19.065 159.426 18.7536C159.029 18.4422 158.826 18.007 158.817 17.4482H159.579C159.588 17.8146 159.726 18.1032 159.994 18.3138C160.271 18.5245 160.631 18.63 161.075 18.63C161.518 18.63 161.873 18.5245 162.141 18.3138C162.418 18.1032 162.562 17.8146 162.571 17.4482H163.333C163.323 18.007 163.116 18.4422 162.709 18.7536C162.303 19.065 161.758 19.2207 161.075 19.2207ZM176.326 29.6219C175.596 29.6219 174.917 29.5028 174.289 29.2647C173.67 29.0174 173.13 28.6739 172.668 28.2342C172.216 27.7854 171.86 27.2679 171.602 26.6817C171.352 26.0862 171.228 25.4359 171.228 24.7306C171.228 24.0253 171.352 23.3794 171.602 22.7932C171.86 22.1978 172.216 21.6803 172.668 21.2405C173.13 20.7917 173.67 20.4482 174.289 20.21C174.908 19.9626 175.587 19.839 176.326 19.839C177.055 19.839 177.729 19.9626 178.348 20.21C178.967 20.4482 179.502 20.7872 179.955 21.2267C180.417 21.6665 180.772 22.184 181.022 22.7794C181.28 23.3749 181.409 24.0253 181.409 24.7306C181.409 25.4359 181.28 26.0862 181.022 26.6817C180.772 27.2769 180.417 27.7946 179.955 28.2342C179.502 28.6739 178.967 29.0174 178.348 29.2647C177.729 29.5028 177.055 29.6219 176.326 29.6219ZM176.326 28.7151C176.907 28.7151 177.443 28.619 177.932 28.4267C178.431 28.2251 178.861 27.9456 179.221 27.5886C179.59 27.222 179.877 26.8008 180.08 26.3244C180.283 25.8388 180.384 25.3075 180.384 24.7306C180.384 24.1534 180.283 23.6267 180.08 23.1505C179.877 22.6649 179.59 22.2436 179.221 21.8864C178.861 21.5198 178.431 21.2405 177.932 21.0482C177.443 20.8466 176.907 20.7458 176.326 20.7458C175.744 20.7458 175.204 20.8466 174.705 21.0482C174.206 21.2405 173.772 21.5198 173.403 21.8864C173.043 22.2436 172.756 22.6649 172.544 23.1505C172.341 23.6267 172.239 24.1534 172.239 24.7306C172.239 25.2985 172.341 25.8252 172.544 26.3106C172.756 26.796 173.043 27.222 173.403 27.5886C173.772 27.9456 174.206 28.2251 174.705 28.4267C175.204 28.619 175.744 28.7151 176.326 28.7151ZM183.856 29.5397V19.9215H190.948V20.7872H184.867V23.9335H188.039C189.184 23.9335 190.053 24.1672 190.644 24.6343C191.244 25.0924 191.544 25.7701 191.544 26.6679C191.544 27.5931 191.221 28.3029 190.574 28.7976C189.937 29.2922 189.018 29.5397 187.817 29.5397H183.856ZM184.867 28.7289H187.804C188.699 28.7289 189.374 28.5594 189.826 28.2206C190.288 27.8724 190.519 27.3687 190.519 26.709C190.519 25.3992 189.614 24.7444 187.804 24.7444H184.867V28.7289ZM192.943 29.6219C192.814 29.6219 192.689 29.6129 192.569 29.5946C192.45 29.5853 192.316 29.5625 192.168 29.5259L192.251 28.619C192.408 28.6556 192.56 28.6739 192.708 28.6739C193.124 28.6739 193.456 28.5137 193.705 28.1931C193.964 27.8633 194.158 27.3594 194.287 26.6817C194.416 25.9947 194.5 25.1152 194.536 24.0436L194.675 19.9215H201.255V29.5397H200.244V20.526L200.507 20.8008H195.326L195.576 20.5124L195.451 24.016C195.414 24.9778 195.345 25.8114 195.243 26.5167C195.141 27.213 194.994 27.7946 194.8 28.2618C194.606 28.7198 194.356 29.0633 194.052 29.2922C193.747 29.5121 193.377 29.6219 192.943 29.6219ZM203.1 29.5397L207.533 19.9215H208.544L212.977 29.5397H211.896L207.824 20.5124H208.239L204.166 29.5397H203.1ZM204.845 26.9703L205.15 26.1457H210.788L211.093 26.9703H204.845ZM218.939 29.6219C218.209 29.6219 217.534 29.5028 216.916 29.2647C216.297 29.0174 215.762 28.6739 215.309 28.2342C214.856 27.7946 214.501 27.2769 214.242 26.6817C213.993 26.0862 213.868 25.4359 213.868 24.7306C213.868 24.0253 213.993 23.3749 214.242 22.7794C214.501 22.184 214.856 21.6665 215.309 21.2267C215.771 20.7872 216.311 20.4482 216.93 20.21C217.549 19.9626 218.222 19.839 218.952 19.839C219.653 19.839 220.315 19.9581 220.934 20.1963C221.553 20.4252 222.074 20.7734 222.498 21.2405L221.848 21.8864C221.451 21.4832 221.012 21.1946 220.533 21.0206C220.051 20.8376 219.534 20.7458 218.98 20.7458C218.398 20.7458 217.858 20.8466 217.358 21.0482C216.861 21.2405 216.426 21.5198 216.057 21.8864C215.688 22.2436 215.397 22.6649 215.184 23.1505C214.981 23.6267 214.88 24.1534 214.88 24.7306C214.88 25.3075 214.981 25.8388 215.184 26.3244C215.397 26.8008 215.688 27.222 216.057 27.5886C216.426 27.9456 216.861 28.2251 217.358 28.4267C217.858 28.619 218.398 28.7151 218.98 28.7151C219.534 28.7151 220.051 28.6235 220.533 28.4403C221.012 28.2572 221.451 27.9641 221.848 27.561L222.498 28.2068C222.074 28.6739 221.553 29.0267 220.934 29.2647C220.315 29.5028 219.649 29.6219 218.939 29.6219ZM226.419 29.5397V20.526L226.697 20.8008H223.012V19.9215H230.839V20.8008H227.168L227.43 20.526V29.5397H226.419ZM232.637 29.5397V19.9215H233.649V27.8907L239.854 19.9215H240.783V29.5397H239.772V21.584L233.566 29.5397H232.637Z" fill="#A70000"/>
</svg>
